solid wolflocal
 facet normal -8.687745e-01  4.952080e-01  0.000000e+00
   outer loop
     vertex -1.290874e+01 -7.111834e+01  1.000000e+02
     vertex -6.313407e+00 -5.954773e+01  1.000000e+02
     vertex -1.290874e+01 -7.111834e+01  0.000000e+00
   endloop
 endfacet
 facet normal -8.709971e-01  4.912882e-01  0.000000e+00
   outer loop
     vertex -1.735586e+01 -7.900257e+01  1.000000e+02
     vertex -1.290874e+01 -7.111834e+01  1.000000e+02
     vertex -1.290874e+01 -7.111834e+01  0.000000e+00
   endloop
 endfacet
 facet normal -8.687745e-01  4.952080e-01  0.000000e+00
   outer loop
     vertex -6.313407e+00 -5.954773e+01  1.000000e+02
     vertex -6.313407e+00 -5.954773e+01  0.000000e+00
     vertex -1.290874e+01 -7.111834e+01  0.000000e+00
   endloop
 endfacet
 facet normal -8.709971e-01  4.912882e-01  0.000000e+00
   outer loop
     vertex -1.735586e+01 -7.900257e+01  1.000000e+02
     vertex -1.290874e+01 -7.111834e+01  0.000000e+00
     vertex -1.735586e+01 -7.900257e+01  0.000000e+00
   endloop
 endfacet
 facet normal -3.236500e-01  9.461769e-01  0.000000e+00
   outer loop
     vertex -6.079502e+01  4.043626e+01  1.000000e+02
     vertex -6.079502e+01  4.043626e+01  0.000000e+00
     vertex -6.793146e+01  3.799517e+01  0.000000e+00
   endloop
 endfacet
 facet normal -3.236500e-01  9.461769e-01  0.000000e+00
   outer loop
     vertex -6.793146e+01  3.799517e+01  1.000000e+02
     vertex -6.079502e+01  4.043626e+01  1.000000e+02
     vertex -6.793146e+01  3.799517e+01  0.000000e+00
   endloop
 endfacet
 facet normal -8.216673e-01  5.699674e-01  0.000000e+00
   outer loop
     vertex -1.735586e+01 -7.900257e+01  1.000000e+02
     vertex -1.735586e+01 -7.900257e+01  0.000000e+00
     vertex -2.050876e+01 -8.354780e+01  0.000000e+00
   endloop
 endfacet
 facet normal -8.216673e-01  5.699674e-01  0.000000e+00
   outer loop
     vertex -2.050876e+01 -8.354780e+01  1.000000e+02
     vertex -1.735586e+01 -7.900257e+01  1.000000e+02
     vertex -2.050876e+01 -8.354780e+01  0.000000e+00
   endloop
 endfacet
 facet normal -7.535439e-01  6.573976e-01  0.000000e+00
   outer loop
     vertex -2.050876e+01 -8.354780e+01  1.000000e+02
     vertex -2.050876e+01 -8.354780e+01  0.000000e+00
     vertex -2.418808e+01 -8.776523e+01  0.000000e+00
   endloop
 endfacet
 facet normal -7.535439e-01  6.573976e-01  0.000000e+00
   outer loop
     vertex -2.418808e+01 -8.776523e+01  1.000000e+02
     vertex -2.050876e+01 -8.354780e+01  1.000000e+02
     vertex -2.418808e+01 -8.776523e+01  0.000000e+00
   endloop
 endfacet
 facet normal -2.605065e-01  9.654721e-01  0.000000e+00
   outer loop
     vertex  5.267273e+01  8.374088e+01  1.000000e+02
     vertex  6.544315e+01  8.718663e+01  1.000000e+02
     vertex  6.544315e+01  8.718663e+01  0.000000e+00
   endloop
 endfacet
 facet normal -3.805343e-01  9.247668e-01  0.000000e+00
   outer loop
     vertex -6.793146e+01  3.799517e+01  1.000000e+02
     vertex -6.793146e+01  3.799517e+01  0.000000e+00
     vertex -7.462309e+01  3.524161e+01  0.000000e+00
   endloop
 endfacet
 facet normal -3.805343e-01  9.247668e-01  0.000000e+00
   outer loop
     vertex -7.462309e+01  3.524161e+01  1.000000e+02
     vertex -6.793146e+01  3.799517e+01  1.000000e+02
     vertex -7.462309e+01  3.524161e+01  0.000000e+00
   endloop
 endfacet
 facet normal -5.726874e-01  8.197738e-01  0.000000e+00
   outer loop
     vertex -7.462309e+01  3.524161e+01  1.000000e+02
     vertex -7.462309e+01  3.524161e+01  0.000000e+00
     vertex -7.544478e+01  3.466759e+01  0.000000e+00
   endloop
 endfacet
 facet normal -2.605065e-01  9.654721e-01  0.000000e+00
   outer loop
     vertex  5.267273e+01  8.374088e+01  1.000000e+02
     vertex  6.544315e+01  8.718663e+01  0.000000e+00
     vertex  5.267273e+01  8.374088e+01  0.000000e+00
   endloop
 endfacet
 facet normal -2.738462e-01  9.617735e-01  0.000000e+00
   outer loop
     vertex  3.570051e+01  7.890837e+01  1.000000e+02
     vertex  5.267273e+01  8.374088e+01  1.000000e+02
     vertex  5.267273e+01  8.374088e+01  0.000000e+00
   endloop
 endfacet
 facet normal -5.726874e-01  8.197738e-01  0.000000e+00
   outer loop
     vertex -7.544478e+01  3.466759e+01  1.000000e+02
     vertex -7.462309e+01  3.524161e+01  1.000000e+02
     vertex -7.544478e+01  3.466759e+01  0.000000e+00
   endloop
 endfacet
 facet normal -8.809835e-01  4.731470e-01  0.000000e+00
   outer loop
     vertex -7.622934e+01  3.357830e+01  1.000000e+02
     vertex -7.595704e+01  3.408531e+01  1.000000e+02
     vertex -7.595704e+01  3.408531e+01  0.000000e+00
   endloop
 endfacet
 facet normal -7.508001e-01  6.605295e-01  0.000000e+00
   outer loop
     vertex -7.544478e+01  3.466759e+01  1.000000e+02
     vertex -7.544478e+01  3.466759e+01  0.000000e+00
     vertex -7.595704e+01  3.408531e+01  0.000000e+00
   endloop
 endfacet
 facet normal -7.508001e-01  6.605295e-01  0.000000e+00
   outer loop
     vertex -7.595704e+01  3.408531e+01  1.000000e+02
     vertex -7.544478e+01  3.466759e+01  1.000000e+02
     vertex -7.595704e+01  3.408531e+01  0.000000e+00
   endloop
 endfacet
 facet normal -9.642840e-01  2.648705e-01  0.000000e+00
   outer loop
     vertex -7.634019e+01  3.317476e+01  1.000000e+02
     vertex -7.622934e+01  3.357830e+01  1.000000e+02
     vertex -7.622934e+01  3.357830e+01  0.000000e+00
   endloop
 endfacet
 facet normal -2.258530e-01  9.741614e-01  0.000000e+00
   outer loop
     vertex  2.584124e+01  7.662256e+01  1.000000e+02
     vertex  3.570051e+01  7.890837e+01  1.000000e+02
     vertex  3.570051e+01  7.890837e+01  0.000000e+00
   endloop
 endfacet
 facet normal -2.738462e-01  9.617735e-01  0.000000e+00
   outer loop
     vertex  3.570051e+01  7.890837e+01  1.000000e+02
     vertex  5.267273e+01  8.374088e+01  0.000000e+00
     vertex  3.570051e+01  7.890837e+01  0.000000e+00
   endloop
 endfacet
 facet normal -8.809835e-01  4.731470e-01  0.000000e+00
   outer loop
     vertex -7.622934e+01  3.357830e+01  1.000000e+02
     vertex -7.595704e+01  3.408531e+01  0.000000e+00
     vertex -7.622934e+01  3.357830e+01  0.000000e+00
   endloop
 endfacet
 facet normal -9.642840e-01  2.648705e-01  0.000000e+00
   outer loop
     vertex -7.634019e+01  3.317476e+01  1.000000e+02
     vertex -7.622934e+01  3.357830e+01  0.000000e+00
     vertex -7.634019e+01  3.317476e+01  0.000000e+00
   endloop
 endfacet
 facet normal -2.258530e-01  9.741614e-01  0.000000e+00
   outer loop
     vertex  2.584124e+01  7.662256e+01  1.000000e+02
     vertex  3.570051e+01  7.890837e+01  0.000000e+00
     vertex  2.584124e+01  7.662256e+01  0.000000e+00
   endloop
 endfacet
 facet normal -9.994421e-01  3.339849e-02  0.000000e+00
   outer loop
     vertex -7.635375e+01  3.276872e+01  1.000000e+02
     vertex -7.634019e+01  3.317476e+01  1.000000e+02
     vertex -7.635375e+01  3.276872e+01  0.000000e+00
   endloop
 endfacet
 facet normal -1.682261e-01  9.857484e-01  0.000000e+00
   outer loop
     vertex  2.584124e+01  7.662256e+01  1.000000e+02
     vertex  2.584124e+01  7.662256e+01  0.000000e+00
     vertex  1.522648e+01  7.481107e+01  0.000000e+00
   endloop
 endfacet
 facet normal -1.682261e-01  9.857484e-01  0.000000e+00
   outer loop
     vertex  1.522648e+01  7.481107e+01  1.000000e+02
     vertex  2.584124e+01  7.662256e+01  1.000000e+02
     vertex  1.522648e+01  7.481107e+01  0.000000e+00
   endloop
 endfacet
 facet normal -1.406609e-01  9.900578e-01  0.000000e+00
   outer loop
     vertex  5.727656e+00  7.346154e+01  1.000000e+02
     vertex  1.522648e+01  7.481107e+01  1.000000e+02
     vertex  1.522648e+01  7.481107e+01  0.000000e+00
   endloop
 endfacet
 facet normal -9.994421e-01  3.339849e-02  0.000000e+00
   outer loop
     vertex -7.634019e+01  3.317476e+01  1.000000e+02
     vertex -7.634019e+01  3.317476e+01  0.000000e+00
     vertex -7.635375e+01  3.276872e+01  0.000000e+00
   endloop
 endfacet
 facet normal -9.857082e-01 -1.684620e-01  0.000000e+00
   outer loop
     vertex -7.627381e+01  3.230098e+01  1.000000e+02
     vertex -7.635375e+01  3.276872e+01  1.000000e+02
     vertex -7.627381e+01  3.230098e+01  0.000000e+00
   endloop
 endfacet
 facet normal -9.365825e-01 -3.504473e-01 -0.000000e+00
   outer loop
     vertex -7.481170e+01  2.839342e+01  1.000000e+02
     vertex -7.627381e+01  3.230098e+01  1.000000e+02
     vertex -7.627381e+01  3.230098e+01  0.000000e+00
   endloop
 endfacet
 facet normal -9.857082e-01 -1.684620e-01 -0.000000e+00
   outer loop
     vertex -7.635375e+01  3.276872e+01  1.000000e+02
     vertex -7.635375e+01  3.276872e+01  0.000000e+00
     vertex -7.627381e+01  3.230098e+01  0.000000e+00
   endloop
 endfacet
 facet normal -8.754262e-01 -4.833518e-01 -0.000000e+00
   outer loop
     vertex -7.380288e+01  2.656629e+01  1.000000e+02
     vertex -7.481170e+01  2.839342e+01  1.000000e+02
     vertex -7.481170e+01  2.839342e+01  0.000000e+00
   endloop
 endfacet
 facet normal -9.365825e-01 -3.504473e-01  0.000000e+00
   outer loop
     vertex -7.481170e+01  2.839342e+01  1.000000e+02
     vertex -7.627381e+01  3.230098e+01  0.000000e+00
     vertex -7.481170e+01  2.839342e+01  0.000000e+00
   endloop
 endfacet
 facet normal -1.406609e-01  9.900578e-01  0.000000e+00
   outer loop
     vertex  5.727656e+00  7.346154e+01  1.000000e+02
     vertex  1.522648e+01  7.481107e+01  0.000000e+00
     vertex  5.727656e+00  7.346154e+01  0.000000e+00
   endloop
 endfacet
 facet normal -8.273917e-01 -5.616252e-01 -0.000000e+00
   outer loop
     vertex -7.262565e+01  2.483199e+01  1.000000e+02
     vertex -7.380288e+01  2.656629e+01  1.000000e+02
     vertex -7.380288e+01  2.656629e+01  0.000000e+00
   endloop
 endfacet
 facet normal -8.754262e-01 -4.833518e-01  0.000000e+00
   outer loop
     vertex -7.380288e+01  2.656629e+01  1.000000e+02
     vertex -7.481170e+01  2.839342e+01  0.000000e+00
     vertex -7.380288e+01  2.656629e+01  0.000000e+00
   endloop
 endfacet
 facet normal -1.630943e-01  9.866105e-01  0.000000e+00
   outer loop
     vertex  5.727656e+00  7.346154e+01  1.000000e+02
     vertex  5.727656e+00  7.346154e+01  0.000000e+00
     vertex -3.735014e+00  7.189728e+01  0.000000e+00
   endloop
 endfacet
 facet normal -1.630943e-01  9.866105e-01  0.000000e+00
   outer loop
     vertex -3.735014e+00  7.189728e+01  1.000000e+02
     vertex  5.727656e+00  7.346154e+01  1.000000e+02
     vertex -3.735014e+00  7.189728e+01  0.000000e+00
   endloop
 endfacet
 facet normal -8.273917e-01 -5.616252e-01  0.000000e+00
   outer loop
     vertex -7.262565e+01  2.483199e+01  1.000000e+02
     vertex -7.380288e+01  2.656629e+01  0.000000e+00
     vertex -7.262565e+01  2.483199e+01  0.000000e+00
   endloop
 endfacet
 facet normal -7.539961e-01 -6.568789e-01  0.000000e+00
   outer loop
     vertex -7.017531e+01  2.201937e+01  1.000000e+02
     vertex -7.262565e+01  2.483199e+01  1.000000e+02
     vertex -7.017531e+01  2.201937e+01  0.000000e+00
   endloop
 endfacet
 facet normal -2.488523e-01  9.685414e-01  0.000000e+00
   outer loop
     vertex -1.025453e+01  7.022219e+01  1.000000e+02
     vertex -3.735014e+00  7.189728e+01  1.000000e+02
     vertex -1.025453e+01  7.022219e+01  0.000000e+00
   endloop
 endfacet
 facet normal -7.539961e-01 -6.568789e-01 -0.000000e+00
   outer loop
     vertex -7.262565e+01  2.483199e+01  1.000000e+02
     vertex -7.262565e+01  2.483199e+01  0.000000e+00
     vertex -7.017531e+01  2.201937e+01  0.000000e+00
   endloop
 endfacet
 facet normal -2.488523e-01  9.685414e-01  0.000000e+00
   outer loop
     vertex -3.735014e+00  7.189728e+01  1.000000e+02
     vertex -3.735014e+00  7.189728e+01  0.000000e+00
     vertex -1.025453e+01  7.022219e+01  0.000000e+00
   endloop
 endfacet
 facet normal -6.374127e-01 -7.705226e-01  0.000000e+00
   outer loop
     vertex -6.709583e+01  1.947188e+01  1.000000e+02
     vertex -7.017531e+01  2.201937e+01  1.000000e+02
     vertex -6.709583e+01  1.947188e+01  0.000000e+00
   endloop
 endfacet
 facet normal -5.559413e-01 -8.312215e-01 -0.000000e+00
   outer loop
     vertex -6.095049e+01  1.536173e+01  1.000000e+02
     vertex -6.709583e+01  1.947188e+01  1.000000e+02
     vertex -6.709583e+01  1.947188e+01  0.000000e+00
   endloop
 endfacet
 facet normal -6.374127e-01 -7.705226e-01 -0.000000e+00
   outer loop
     vertex -7.017531e+01  2.201937e+01  1.000000e+02
     vertex -7.017531e+01  2.201937e+01  0.000000e+00
     vertex -6.709583e+01  1.947188e+01  0.000000e+00
   endloop
 endfacet
 facet normal -3.307148e-01  9.437308e-01  0.000000e+00
   outer loop
     vertex -1.025453e+01  7.022219e+01  1.000000e+02
     vertex -1.025453e+01  7.022219e+01  0.000000e+00
     vertex -1.726698e+01  6.776479e+01  0.000000e+00
   endloop
 endfacet
 facet normal -3.307148e-01  9.437308e-01  0.000000e+00
   outer loop
     vertex -1.726698e+01  6.776479e+01  1.000000e+02
     vertex -1.025453e+01  7.022219e+01  1.000000e+02
     vertex -1.726698e+01  6.776479e+01  0.000000e+00
   endloop
 endfacet
 facet normal -5.232513e-01 -8.521785e-01 -0.000000e+00
   outer loop
     vertex -5.466635e+01  1.150317e+01  1.000000e+02
     vertex -6.095049e+01  1.536173e+01  1.000000e+02
     vertex -6.095049e+01  1.536173e+01  0.000000e+00
   endloop
 endfacet
 facet normal -5.559413e-01 -8.312215e-01  0.000000e+00
   outer loop
     vertex -6.095049e+01  1.536173e+01  1.000000e+02
     vertex -6.709583e+01  1.947188e+01  0.000000e+00
     vertex -6.095049e+01  1.536173e+01  0.000000e+00
   endloop
 endfacet
 facet normal -3.514498e-01  9.362067e-01  0.000000e+00
   outer loop
     vertex -2.622782e+01  6.440091e+01  1.000000e+02
     vertex -1.726698e+01  6.776479e+01  1.000000e+02
     vertex -2.622782e+01  6.440091e+01  0.000000e+00
   endloop
 endfacet
 facet normal -3.382554e-01  9.410543e-01  0.000000e+00
   outer loop
     vertex -3.273497e+01  6.206196e+01  1.000000e+02
     vertex -2.622782e+01  6.440091e+01  1.000000e+02
     vertex -2.622782e+01  6.440091e+01  0.000000e+00
   endloop
 endfacet
 facet normal -4.404301e-01 -8.977869e-01 -0.000000e+00
   outer loop
     vertex -4.903295e+01  8.739569e+00  1.000000e+02
     vertex -5.466635e+01  1.150317e+01  1.000000e+02
     vertex -5.466635e+01  1.150317e+01  0.000000e+00
   endloop
 endfacet
 facet normal -3.514498e-01  9.362067e-01  0.000000e+00
   outer loop
     vertex -1.726698e+01  6.776479e+01  1.000000e+02
     vertex -1.726698e+01  6.776479e+01  0.000000e+00
     vertex -2.622782e+01  6.440091e+01  0.000000e+00
   endloop
 endfacet
 facet normal -5.232513e-01 -8.521785e-01  0.000000e+00
   outer loop
     vertex -5.466635e+01  1.150317e+01  1.000000e+02
     vertex -6.095049e+01  1.536173e+01  0.000000e+00
     vertex -5.466635e+01  1.150317e+01  0.000000e+00
   endloop
 endfacet
 facet normal -3.382554e-01  9.410543e-01  0.000000e+00
   outer loop
     vertex -3.273497e+01  6.206196e+01  1.000000e+02
     vertex -2.622782e+01  6.440091e+01  0.000000e+00
     vertex -3.273497e+01  6.206196e+01  0.000000e+00
   endloop
 endfacet
 facet normal -4.404301e-01 -8.977869e-01  0.000000e+00
   outer loop
     vertex -4.903295e+01  8.739569e+00  1.000000e+02
     vertex -5.466635e+01  1.150317e+01  0.000000e+00
     vertex -4.903295e+01  8.739569e+00  0.000000e+00
   endloop
 endfacet
 facet normal -3.410047e-01 -9.400616e-01  0.000000e+00
   outer loop
     vertex -4.449711e+01  7.094208e+00  1.000000e+02
     vertex -4.903295e+01  8.739569e+00  1.000000e+02
     vertex -4.449711e+01  7.094208e+00  0.000000e+00
   endloop
 endfacet
 facet normal -4.423730e-01  8.968311e-01  0.000000e+00
   outer loop
     vertex -3.273497e+01  6.206196e+01  1.000000e+02
     vertex -3.273497e+01  6.206196e+01  0.000000e+00
     vertex -3.678137e+01  6.006603e+01  0.000000e+00
   endloop
 endfacet
 facet normal -3.410047e-01 -9.400616e-01 -0.000000e+00
   outer loop
     vertex -4.903295e+01  8.739569e+00  1.000000e+02
     vertex -4.903295e+01  8.739569e+00  0.000000e+00
     vertex -4.449711e+01  7.094208e+00  0.000000e+00
   endloop
 endfacet
 facet normal -4.423730e-01  8.968311e-01  0.000000e+00
   outer loop
     vertex -3.678137e+01  6.006603e+01  1.000000e+02
     vertex -3.273497e+01  6.206196e+01  1.000000e+02
     vertex -3.678137e+01  6.006603e+01  0.000000e+00
   endloop
 endfacet
 facet normal -2.106385e-01 -9.775640e-01  0.000000e+00
   outer loop
     vertex -4.030044e+01  6.189939e+00  1.000000e+02
     vertex -4.449711e+01  7.094208e+00  1.000000e+02
     vertex -4.030044e+01  6.189939e+00  0.000000e+00
   endloop
 endfacet
 facet normal -6.335186e-02 -9.979913e-01 -0.000000e+00
   outer loop
     vertex -3.633023e+01  5.937913e+00  1.000000e+02
     vertex -4.030044e+01  6.189939e+00  1.000000e+02
     vertex -4.030044e+01  6.189939e+00  0.000000e+00
   endloop
 endfacet
 facet normal -2.106385e-01 -9.775640e-01 -0.000000e+00
   outer loop
     vertex -4.449711e+01  7.094208e+00  1.000000e+02
     vertex -4.449711e+01  7.094208e+00  0.000000e+00
     vertex -4.030044e+01  6.189939e+00  0.000000e+00
   endloop
 endfacet
 facet normal -5.572467e-01  8.303470e-01  0.000000e+00
   outer loop
     vertex -3.886787e+01  5.866578e+01  1.000000e+02
     vertex -3.678137e+01  6.006603e+01  1.000000e+02
     vertex -3.886787e+01  5.866578e+01  0.000000e+00
   endloop
 endfacet
 facet normal -5.572467e-01  8.303470e-01  0.000000e+00
   outer loop
     vertex -3.678137e+01  6.006603e+01  1.000000e+02
     vertex -3.678137e+01  6.006603e+01  0.000000e+00
     vertex -3.886787e+01  5.866578e+01  0.000000e+00
   endloop
 endfacet
 facet normal -6.335186e-02 -9.979913e-01  0.000000e+00
   outer loop
     vertex -3.633023e+01  5.937913e+00  1.000000e+02
     vertex -4.030044e+01  6.189939e+00  0.000000e+00
     vertex -3.633023e+01  5.937913e+00  0.000000e+00
   endloop
 endfacet
 facet normal  9.359664e-02 -9.956102e-01  0.000000e+00
   outer loop
     vertex -3.260757e+01  6.287878e+00  1.000000e+02
     vertex -3.633023e+01  5.937913e+00  1.000000e+02
     vertex -3.260757e+01  6.287878e+00  0.000000e+00
   endloop
 endfacet
 facet normal -8.567895e-01  5.156663e-01  0.000000e+00
   outer loop
     vertex -3.886787e+01  5.866578e+01  1.000000e+02
     vertex -3.886787e+01  5.866578e+01  0.000000e+00
     vertex -3.898177e+01  5.847653e+01  0.000000e+00
   endloop
 endfacet
 facet normal -8.567895e-01  5.156663e-01  0.000000e+00
   outer loop
     vertex -3.898177e+01  5.847653e+01  1.000000e+02
     vertex -3.886787e+01  5.866578e+01  1.000000e+02
     vertex -3.898177e+01  5.847653e+01  0.000000e+00
   endloop
 endfacet
 facet normal -9.568635e-01  2.905378e-01  0.000000e+00
   outer loop
     vertex -3.906594e+01  5.819932e+01  1.000000e+02
     vertex -3.898177e+01  5.847653e+01  1.000000e+02
     vertex -3.898177e+01  5.847653e+01  0.000000e+00
   endloop
 endfacet
 facet normal  9.359664e-02 -9.956102e-01  0.000000e+00
   outer loop
     vertex -3.633023e+01  5.937913e+00  1.000000e+02
     vertex -3.633023e+01  5.937913e+00  0.000000e+00
     vertex -3.260757e+01  6.287878e+00  0.000000e+00
   endloop
 endfacet
 facet normal  2.581650e-01 -9.661008e-01  0.000000e+00
   outer loop
     vertex -2.923216e+01  7.189868e+00  1.000000e+02
     vertex -3.260757e+01  6.287878e+00  1.000000e+02
     vertex -2.923216e+01  7.189868e+00  0.000000e+00
   endloop
 endfacet
 facet normal  2.581650e-01 -9.661008e-01  0.000000e+00
   outer loop
     vertex -3.260757e+01  6.287878e+00  1.000000e+02
     vertex -3.260757e+01  6.287878e+00  0.000000e+00
     vertex -2.923216e+01  7.189868e+00  0.000000e+00
   endloop
 endfacet
 facet normal  3.993258e-01 -9.168091e-01  0.000000e+00
   outer loop
     vertex -2.569625e+01  8.729969e+00  1.000000e+02
     vertex -2.923216e+01  7.189868e+00  1.000000e+02
     vertex -2.569625e+01  8.729969e+00  0.000000e+00
   endloop
 endfacet
 facet normal -9.568635e-01  2.905378e-01  0.000000e+00
   outer loop
     vertex -3.906594e+01  5.819932e+01  1.000000e+02
     vertex -3.898177e+01  5.847653e+01  0.000000e+00
     vertex -3.906594e+01  5.819932e+01  0.000000e+00
   endloop
 endfacet
 facet normal  3.993258e-01 -9.168091e-01  0.000000e+00
   outer loop
     vertex -2.923216e+01  7.189868e+00  1.000000e+02
     vertex -2.923216e+01  7.189868e+00  0.000000e+00
     vertex -2.569625e+01  8.729969e+00  0.000000e+00
   endloop
 endfacet
 facet normal -9.983536e-01 -5.735983e-02 -0.000000e+00
   outer loop
     vertex -3.906594e+01  5.819932e+01  1.000000e+02
     vertex -3.906594e+01  5.819932e+01  0.000000e+00
     vertex -3.894359e+01  5.606978e+01  0.000000e+00
   endloop
 endfacet
 facet normal  3.832021e-01 -9.236645e-01  0.000000e+00
   outer loop
     vertex -2.390971e+01  9.471154e+00  1.000000e+02
     vertex -2.569625e+01  8.729969e+00  1.000000e+02
     vertex -2.390971e+01  9.471154e+00  0.000000e+00
   endloop
 endfacet
 facet normal -9.983536e-01 -5.735983e-02  0.000000e+00
   outer loop
     vertex -3.894359e+01  5.606978e+01  1.000000e+02
     vertex -3.906594e+01  5.819932e+01  1.000000e+02
     vertex -3.894359e+01  5.606978e+01  0.000000e+00
   endloop
 endfacet
 facet normal  3.832021e-01 -9.236645e-01  0.000000e+00
   outer loop
     vertex -2.569625e+01  8.729969e+00  1.000000e+02
     vertex -2.569625e+01  8.729969e+00  0.000000e+00
     vertex -2.390971e+01  9.471154e+00  0.000000e+00
   endloop
 endfacet
 facet normal  2.925435e-01 -9.562522e-01  0.000000e+00
   outer loop
     vertex -2.206230e+01  1.003633e+01  1.000000e+02
     vertex -2.390971e+01  9.471154e+00  1.000000e+02
     vertex -2.206230e+01  1.003633e+01  0.000000e+00
   endloop
 endfacet
 facet normal  1.193274e-01 -9.928550e-01  0.000000e+00
   outer loop
     vertex -1.901639e+01  1.040240e+01  1.000000e+02
     vertex -2.206230e+01  1.003633e+01  1.000000e+02
     vertex -2.206230e+01  1.003633e+01  0.000000e+00
   endloop
 endfacet
 facet normal  2.925435e-01 -9.562522e-01  0.000000e+00
   outer loop
     vertex -2.390971e+01  9.471154e+00  1.000000e+02
     vertex -2.390971e+01  9.471154e+00  0.000000e+00
     vertex -2.206230e+01  1.003633e+01  0.000000e+00
   endloop
 endfacet
 facet normal -9.948539e-01 -1.013196e-01 -0.000000e+00
   outer loop
     vertex -3.894359e+01  5.606978e+01  1.000000e+02
     vertex -3.894359e+01  5.606978e+01  0.000000e+00
     vertex -3.866057e+01  5.329081e+01  0.000000e+00
   endloop
 endfacet
 facet normal -9.948539e-01 -1.013196e-01  0.000000e+00
   outer loop
     vertex -3.866057e+01  5.329081e+01  1.000000e+02
     vertex -3.894359e+01  5.606978e+01  1.000000e+02
     vertex -3.866057e+01  5.329081e+01  0.000000e+00
   endloop
 endfacet
 facet normal -9.995259e-01 -3.079052e-02 -0.000000e+00
   outer loop
     vertex -3.856284e+01  5.011848e+01  1.000000e+02
     vertex -3.866057e+01  5.329081e+01  1.000000e+02
     vertex -3.866057e+01  5.329081e+01  0.000000e+00
   endloop
 endfacet
 facet normal  1.193274e-01 -9.928550e-01  0.000000e+00
   outer loop
     vertex -1.901639e+01  1.040240e+01  1.000000e+02
     vertex -2.206230e+01  1.003633e+01  0.000000e+00
     vertex -1.901639e+01  1.040240e+01  0.000000e+00
   endloop
 endfacet
 facet normal -5.835535e-02 -9.982959e-01  0.000000e+00
   outer loop
     vertex -1.533645e+01  1.018729e+01  1.000000e+02
     vertex -1.901639e+01  1.040240e+01  1.000000e+02
     vertex -1.533645e+01  1.018729e+01  0.000000e+00
   endloop
 endfacet
 facet normal -2.450998e-01 -9.694979e-01 -0.000000e+00
   outer loop
     vertex -1.226456e+01  9.410684e+00  1.000000e+02
     vertex -1.533645e+01  1.018729e+01  1.000000e+02
     vertex -1.533645e+01  1.018729e+01  0.000000e+00
   endloop
 endfacet
 facet normal -9.995259e-01 -3.079052e-02  0.000000e+00
   outer loop
     vertex -3.856284e+01  5.011848e+01  1.000000e+02
     vertex -3.866057e+01  5.329081e+01  0.000000e+00
     vertex -3.856284e+01  5.011848e+01  0.000000e+00
   endloop
 endfacet
 facet normal -5.835535e-02 -9.982959e-01 -0.000000e+00
   outer loop
     vertex -1.901639e+01  1.040240e+01  1.000000e+02
     vertex -1.901639e+01  1.040240e+01  0.000000e+00
     vertex -1.533645e+01  1.018729e+01  0.000000e+00
   endloop
 endfacet
 facet normal -9.214619e-01  3.884688e-01  0.000000e+00
   outer loop
     vertex -3.856284e+01  5.011848e+01  1.000000e+02
     vertex -3.856284e+01  5.011848e+01  0.000000e+00
     vertex -3.873963e+01  4.969915e+01  0.000000e+00
   endloop
 endfacet
 facet normal -9.214619e-01  3.884688e-01  0.000000e+00
   outer loop
     vertex -3.873963e+01  4.969915e+01  1.000000e+02
     vertex -3.856284e+01  5.011848e+01  1.000000e+02
     vertex -3.873963e+01  4.969915e+01  0.000000e+00
   endloop
 endfacet
 facet normal -2.450998e-01 -9.694979e-01  0.000000e+00
   outer loop
     vertex -1.226456e+01  9.410684e+00  1.000000e+02
     vertex -1.533645e+01  1.018729e+01  0.000000e+00
     vertex -1.226456e+01  9.410684e+00  0.000000e+00
   endloop
 endfacet
 facet normal -4.363204e-01 -8.997914e-01  0.000000e+00
   outer loop
     vertex -9.308003e+00  7.977011e+00  1.000000e+02
     vertex -1.226456e+01  9.410684e+00  1.000000e+02
     vertex -9.308003e+00  7.977011e+00  0.000000e+00
   endloop
 endfacet
 facet normal -5.353894e-01 -8.446053e-01 -0.000000e+00
   outer loop
     vertex -2.779479e+00  3.838624e+00  1.000000e+02
     vertex -9.308003e+00  7.977011e+00  1.000000e+02
     vertex -9.308003e+00  7.977011e+00  0.000000e+00
   endloop
 endfacet
 facet normal -4.363204e-01 -8.997914e-01 -0.000000e+00
   outer loop
     vertex -1.226456e+01  9.410684e+00  1.000000e+02
     vertex -1.226456e+01  9.410684e+00  0.000000e+00
     vertex -9.308003e+00  7.977011e+00  0.000000e+00
   endloop
 endfacet
 facet normal -7.961753e-01  6.050661e-01  0.000000e+00
   outer loop
     vertex -3.873963e+01  4.969915e+01  1.000000e+02
     vertex -3.873963e+01  4.969915e+01  0.000000e+00
     vertex -3.927461e+01  4.899519e+01  0.000000e+00
   endloop
 endfacet
 facet normal -7.961753e-01  6.050661e-01  0.000000e+00
   outer loop
     vertex -3.927461e+01  4.899519e+01  1.000000e+02
     vertex -3.873963e+01  4.969915e+01  1.000000e+02
     vertex -3.927461e+01  4.899519e+01  0.000000e+00
   endloop
 endfacet
 facet normal -7.298504e-01 -6.836069e-01 -0.000000e+00
   outer loop
     vertex -9.208403e-01  1.854256e+00  1.000000e+02
     vertex -2.779479e+00  3.838624e+00  1.000000e+02
     vertex -2.779479e+00  3.838624e+00  0.000000e+00
   endloop
 endfacet
 facet normal -5.353894e-01 -8.446053e-01  0.000000e+00
   outer loop
     vertex -2.779479e+00  3.838624e+00  1.000000e+02
     vertex -9.308003e+00  7.977011e+00  0.000000e+00
     vertex -2.779479e+00  3.838624e+00  0.000000e+00
   endloop
 endfacet
 facet normal -6.706789e-01  7.417478e-01  0.000000e+00
   outer loop
     vertex -3.927461e+01  4.899519e+01  1.000000e+02
     vertex -3.927461e+01  4.899519e+01  0.000000e+00
     vertex -4.142752e+01  4.704856e+01  0.000000e+00
   endloop
 endfacet
 facet normal -6.706789e-01  7.417478e-01  0.000000e+00
   outer loop
     vertex -4.142752e+01  4.704856e+01  1.000000e+02
     vertex -3.927461e+01  4.899519e+01  1.000000e+02
     vertex -4.142752e+01  4.704856e+01  0.000000e+00
   endloop
 endfacet
 facet normal -7.298504e-01 -6.836069e-01  0.000000e+00
   outer loop
     vertex -9.208403e-01  1.854256e+00  1.000000e+02
     vertex -2.779479e+00  3.838624e+00  0.000000e+00
     vertex -9.208403e-01  1.854256e+00  0.000000e+00
   endloop
 endfacet
 facet normal -7.729009e-01 -6.345267e-01  0.000000e+00
   outer loop
     vertex  1.259337e+00 -8.013625e-01  1.000000e+02
     vertex -9.208403e-01  1.854256e+00  1.000000e+02
     vertex  1.259337e+00 -8.013625e-01  0.000000e+00
   endloop
 endfacet
 facet normal -8.069615e-01 -5.906040e-01 -0.000000e+00
   outer loop
     vertex  3.254523e+00 -3.527450e+00  1.000000e+02
     vertex  1.259337e+00 -8.013625e-01  1.000000e+02
     vertex  1.259337e+00 -8.013625e-01  0.000000e+00
   endloop
 endfacet
 facet normal -7.729009e-01 -6.345267e-01 -0.000000e+00
   outer loop
     vertex -9.208403e-01  1.854256e+00  1.000000e+02
     vertex -9.208403e-01  1.854256e+00  0.000000e+00
     vertex  1.259337e+00 -8.013625e-01  0.000000e+00
   endloop
 endfacet
 facet normal -8.069615e-01 -5.906040e-01  0.000000e+00
   outer loop
     vertex  3.254523e+00 -3.527450e+00  1.000000e+02
     vertex  1.259337e+00 -8.013625e-01  0.000000e+00
     vertex  3.254523e+00 -3.527450e+00  0.000000e+00
   endloop
 endfacet
 facet normal -5.026364e-01  8.644979e-01  0.000000e+00
   outer loop
     vertex -4.142752e+01  4.704856e+01  1.000000e+02
     vertex -4.142752e+01  4.704856e+01  0.000000e+00
     vertex -4.310491e+01  4.607329e+01  0.000000e+00
   endloop
 endfacet
 facet normal -5.026364e-01  8.644979e-01  0.000000e+00
   outer loop
     vertex -4.310491e+01  4.607329e+01  1.000000e+02
     vertex -4.142752e+01  4.704856e+01  1.000000e+02
     vertex -4.310491e+01  4.607329e+01  0.000000e+00
   endloop
 endfacet
 facet normal -3.496756e-01  9.368708e-01  0.000000e+00
   outer loop
     vertex -4.749738e+01  4.443386e+01  1.000000e+02
     vertex -4.310491e+01  4.607329e+01  1.000000e+02
     vertex -4.310491e+01  4.607329e+01  0.000000e+00
   endloop
 endfacet
 facet normal -9.170307e-01 -3.988165e-01  0.000000e+00
   outer loop
     vertex  4.352664e+00 -6.052494e+00  1.000000e+02
     vertex  3.254523e+00 -3.527450e+00  1.000000e+02
     vertex  4.352664e+00 -6.052494e+00  0.000000e+00
   endloop
 endfacet
 facet normal -9.170307e-01 -3.988165e-01 -0.000000e+00
   outer loop
     vertex  3.254523e+00 -3.527450e+00  1.000000e+02
     vertex  3.254523e+00 -3.527450e+00  0.000000e+00
     vertex  4.352664e+00 -6.052494e+00  0.000000e+00
   endloop
 endfacet
 facet normal -9.692046e-01 -2.462567e-01 -0.000000e+00
   outer loop
     vertex  4.352664e+00 -6.052494e+00  1.000000e+02
     vertex  4.352664e+00 -6.052494e+00  0.000000e+00
     vertex  5.277984e+00 -9.694321e+00  0.000000e+00
   endloop
 endfacet
 facet normal -9.692046e-01 -2.462567e-01  0.000000e+00
   outer loop
     vertex  5.277984e+00 -9.694321e+00  1.000000e+02
     vertex  4.352664e+00 -6.052494e+00  1.000000e+02
     vertex  5.277984e+00 -9.694321e+00  0.000000e+00
   endloop
 endfacet
 facet normal -9.838224e-01 -1.791463e-01 -0.000000e+00
   outer loop
     vertex  6.413243e+00 -1.592886e+01  1.000000e+02
     vertex  5.277984e+00 -9.694321e+00  1.000000e+02
     vertex  5.277984e+00 -9.694321e+00  0.000000e+00
   endloop
 endfacet
 facet normal -3.496756e-01  9.368708e-01  0.000000e+00
   outer loop
     vertex -4.749738e+01  4.443386e+01  1.000000e+02
     vertex -4.310491e+01  4.607329e+01  0.000000e+00
     vertex -4.749738e+01  4.443386e+01  0.000000e+00
   endloop
 endfacet
 facet normal -3.021681e-01  9.532546e-01  0.000000e+00
   outer loop
     vertex -5.192655e+01  4.302987e+01  1.000000e+02
     vertex -4.749738e+01  4.443386e+01  1.000000e+02
     vertex -4.749738e+01  4.443386e+01  0.000000e+00
   endloop
 endfacet
 facet normal -9.838224e-01 -1.791463e-01  0.000000e+00
   outer loop
     vertex  6.413243e+00 -1.592886e+01  1.000000e+02
     vertex  5.277984e+00 -9.694321e+00  0.000000e+00
     vertex  6.413243e+00 -1.592886e+01  0.000000e+00
   endloop
 endfacet
 facet normal -9.984293e-01 -5.602585e-02 -0.000000e+00
   outer loop
     vertex  6.413243e+00 -1.592886e+01  1.000000e+02
     vertex  6.413243e+00 -1.592886e+01  0.000000e+00
     vertex  6.643934e+00 -2.003997e+01  0.000000e+00
   endloop
 endfacet
 facet normal -9.984293e-01 -5.602585e-02  0.000000e+00
   outer loop
     vertex  6.643934e+00 -2.003997e+01  1.000000e+02
     vertex  6.413243e+00 -1.592886e+01  1.000000e+02
     vertex  6.643934e+00 -2.003997e+01  0.000000e+00
   endloop
 endfacet
 facet normal -3.021681e-01  9.532546e-01  0.000000e+00
   outer loop
     vertex -5.192655e+01  4.302987e+01  1.000000e+02
     vertex -4.749738e+01  4.443386e+01  0.000000e+00
     vertex -5.192655e+01  4.302987e+01  0.000000e+00
   endloop
 endfacet
 facet normal -9.960264e-01  8.905796e-02  0.000000e+00
   outer loop
     vertex  6.250506e+00 -2.444008e+01  1.000000e+02
     vertex  6.643934e+00 -2.003997e+01  1.000000e+02
     vertex  6.250506e+00 -2.444008e+01  0.000000e+00
   endloop
 endfacet
 facet normal -9.960264e-01  8.905796e-02  0.000000e+00
   outer loop
     vertex  6.643934e+00 -2.003997e+01  1.000000e+02
     vertex  6.643934e+00 -2.003997e+01  0.000000e+00
     vertex  6.250506e+00 -2.444008e+01  0.000000e+00
   endloop
 endfacet
 facet normal -9.816154e-01  1.908697e-01  0.000000e+00
   outer loop
     vertex  6.250506e+00 -2.444008e+01  1.000000e+02
     vertex  6.250506e+00 -2.444008e+01  0.000000e+00
     vertex  5.154284e+00 -3.007779e+01  0.000000e+00
   endloop
 endfacet
 facet normal -9.816154e-01  1.908697e-01  0.000000e+00
   outer loop
     vertex  5.154284e+00 -3.007779e+01  1.000000e+02
     vertex  6.250506e+00 -2.444008e+01  1.000000e+02
     vertex  5.154284e+00 -3.007779e+01  0.000000e+00
   endloop
 endfacet
 facet normal -9.656511e-01  2.598423e-01  0.000000e+00
   outer loop
     vertex  2.939898e+00 -3.830711e+01  1.000000e+02
     vertex  5.154284e+00 -3.007779e+01  1.000000e+02
     vertex  2.939898e+00 -3.830711e+01  0.000000e+00
   endloop
 endfacet
 facet normal -9.656511e-01  2.598423e-01  0.000000e+00
   outer loop
     vertex  5.154284e+00 -3.007779e+01  1.000000e+02
     vertex  5.154284e+00 -3.007779e+01  0.000000e+00
     vertex  2.939898e+00 -3.830711e+01  0.000000e+00
   endloop
 endfacet
 facet normal -9.460533e-01  3.240109e-01  0.000000e+00
   outer loop
     vertex  2.939898e+00 -3.830711e+01  1.000000e+02
     vertex  2.939898e+00 -3.830711e+01  0.000000e+00
     vertex  3.698708e-01 -4.581113e+01  0.000000e+00
   endloop
 endfacet
 facet normal -2.806956e-01  9.597968e-01  0.000000e+00
   outer loop
     vertex -5.192655e+01  4.302987e+01  1.000000e+02
     vertex -5.192655e+01  4.302987e+01  0.000000e+00
     vertex -6.079502e+01  4.043626e+01  0.000000e+00
   endloop
 endfacet
 facet normal -2.806956e-01  9.597968e-01  0.000000e+00
   outer loop
     vertex -6.079502e+01  4.043626e+01  1.000000e+02
     vertex -5.192655e+01  4.302987e+01  1.000000e+02
     vertex -6.079502e+01  4.043626e+01  0.000000e+00
   endloop
 endfacet
 facet normal -9.460533e-01  3.240109e-01  0.000000e+00
   outer loop
     vertex  3.698708e-01 -4.581113e+01  1.000000e+02
     vertex  2.939898e+00 -3.830711e+01  1.000000e+02
     vertex  3.698708e-01 -4.581113e+01  0.000000e+00
   endloop
 endfacet
 facet normal -9.169349e-01  3.990368e-01  0.000000e+00
   outer loop
     vertex -2.475678e+00 -5.234983e+01  1.000000e+02
     vertex  3.698708e-01 -4.581113e+01  1.000000e+02
     vertex -2.475678e+00 -5.234983e+01  0.000000e+00
   endloop
 endfacet
 facet normal -9.169349e-01  3.990368e-01  0.000000e+00
   outer loop
     vertex  3.698708e-01 -4.581113e+01  1.000000e+02
     vertex  3.698708e-01 -4.581113e+01  0.000000e+00
     vertex -2.475678e+00 -5.234983e+01  0.000000e+00
   endloop
 endfacet
 facet normal -8.824115e-01  4.704783e-01  0.000000e+00
   outer loop
     vertex -2.475678e+00 -5.234983e+01  1.000000e+02
     vertex -2.475678e+00 -5.234983e+01  0.000000e+00
     vertex -6.313407e+00 -5.954773e+01  0.000000e+00
   endloop
 endfacet
 facet normal -8.824115e-01  4.704783e-01  0.000000e+00
   outer loop
     vertex -6.313407e+00 -5.954773e+01  1.000000e+02
     vertex -2.475678e+00 -5.234983e+01  1.000000e+02
     vertex -6.313407e+00 -5.954773e+01  0.000000e+00
   endloop
 endfacet
 facet normal  7.982614e-01  6.023112e-01  0.000000e+00
   outer loop
     vertex  5.468957e+01  4.048078e+01  1.000000e+02
     vertex  5.468957e+01  4.048078e+01  0.000000e+00
     vertex  5.094990e+01  4.543707e+01  0.000000e+00
   endloop
 endfacet
 facet normal  7.982614e-01  6.023112e-01  0.000000e+00
   outer loop
     vertex  5.094990e+01  4.543707e+01  1.000000e+02
     vertex  5.468957e+01  4.048078e+01  1.000000e+02
     vertex  5.094990e+01  4.543707e+01  0.000000e+00
   endloop
 endfacet
 facet normal  7.917603e-01  6.108319e-01  0.000000e+00
   outer loop
     vertex  5.094990e+01  4.543707e+01  1.000000e+02
     vertex  5.094990e+01  4.543707e+01  0.000000e+00
     vertex  4.717687e+01  5.032767e+01  0.000000e+00
   endloop
 endfacet
 facet normal  7.917603e-01  6.108319e-01  0.000000e+00
   outer loop
     vertex  4.717687e+01  5.032767e+01  1.000000e+02
     vertex  5.094990e+01  4.543707e+01  1.000000e+02
     vertex  4.717687e+01  5.032767e+01  0.000000e+00
   endloop
 endfacet
 facet normal  7.167693e-01 -6.973104e-01  0.000000e+00
   outer loop
     vertex  2.113605e+01 -5.305353e+01  1.000000e+02
     vertex  2.113605e+01 -5.305353e+01  0.000000e+00
     vertex  2.796216e+01 -4.603694e+01  0.000000e+00
   endloop
 endfacet
 facet normal  7.460536e-01 -6.658859e-01  0.000000e+00
   outer loop
     vertex  2.796216e+01 -4.603694e+01  1.000000e+02
     vertex  2.796216e+01 -4.603694e+01  0.000000e+00
     vertex  3.760943e+01 -3.522821e+01  0.000000e+00
   endloop
 endfacet
 facet normal  7.460536e-01 -6.658859e-01  0.000000e+00
   outer loop
     vertex  3.760943e+01 -3.522821e+01  1.000000e+02
     vertex  2.796216e+01 -4.603694e+01  1.000000e+02
     vertex  3.760943e+01 -3.522821e+01  0.000000e+00
   endloop
 endfacet
 facet normal  7.777440e-01 -6.285812e-01  0.000000e+00
   outer loop
     vertex  4.299201e+01 -2.856834e+01  1.000000e+02
     vertex  3.760943e+01 -3.522821e+01  1.000000e+02
     vertex  3.760943e+01 -3.522821e+01  0.000000e+00
   endloop
 endfacet
 facet normal  7.777440e-01 -6.285812e-01  0.000000e+00
   outer loop
     vertex  4.299201e+01 -2.856834e+01  1.000000e+02
     vertex  3.760943e+01 -3.522821e+01  0.000000e+00
     vertex  4.299201e+01 -2.856834e+01  0.000000e+00
   endloop
 endfacet
 facet normal  8.190153e-01 -5.737717e-01  0.000000e+00
   outer loop
     vertex  4.299201e+01 -2.856834e+01  1.000000e+02
     vertex  4.299201e+01 -2.856834e+01  0.000000e+00
     vertex  4.776477e+01 -2.175558e+01  0.000000e+00
   endloop
 endfacet
 facet normal  8.190153e-01 -5.737717e-01  0.000000e+00
   outer loop
     vertex  4.776477e+01 -2.175558e+01  1.000000e+02
     vertex  4.299201e+01 -2.856834e+01  1.000000e+02
     vertex  4.776477e+01 -2.175558e+01  0.000000e+00
   endloop
 endfacet
 facet normal  4.941443e-01 -8.693799e-01  0.000000e+00
   outer loop
     vertex -2.418808e+01 -8.776523e+01  1.000000e+02
     vertex -2.418808e+01 -8.776523e+01  0.000000e+00
     vertex -1.808772e+01 -8.429786e+01  0.000000e+00
   endloop
 endfacet
 facet normal  4.941443e-01 -8.693799e-01  0.000000e+00
   outer loop
     vertex -1.808772e+01 -8.429786e+01  1.000000e+02
     vertex -2.418808e+01 -8.776523e+01  1.000000e+02
     vertex -1.808772e+01 -8.429786e+01  0.000000e+00
   endloop
 endfacet
 facet normal  8.627540e-01 -5.056240e-01  0.000000e+00
   outer loop
     vertex  5.202880e+01 -1.447981e+01  1.000000e+02
     vertex  4.776477e+01 -2.175558e+01  1.000000e+02
     vertex  5.202880e+01 -1.447981e+01  0.000000e+00
   endloop
 endfacet
 facet normal  5.608638e-01 -8.279081e-01  0.000000e+00
   outer loop
     vertex -1.229999e+01 -8.037698e+01  1.000000e+02
     vertex -1.808772e+01 -8.429786e+01  1.000000e+02
     vertex -1.229999e+01 -8.037698e+01  0.000000e+00
   endloop
 endfacet
 facet normal  6.094308e-01 -7.928392e-01  0.000000e+00
   outer loop
     vertex -4.861389e+00 -7.465916e+01  1.000000e+02
     vertex -1.229999e+01 -8.037698e+01  1.000000e+02
     vertex -1.229999e+01 -8.037698e+01  0.000000e+00
   endloop
 endfacet
 facet normal  8.627540e-01 -5.056240e-01  0.000000e+00
   outer loop
     vertex  4.776477e+01 -2.175558e+01  1.000000e+02
     vertex  4.776477e+01 -2.175558e+01  0.000000e+00
     vertex  5.202880e+01 -1.447981e+01  0.000000e+00
   endloop
 endfacet
 facet normal  8.963221e-01 -4.434035e-01  0.000000e+00
   outer loop
     vertex  5.202880e+01 -1.447981e+01  1.000000e+02
     vertex  5.202880e+01 -1.447981e+01  0.000000e+00
     vertex  5.538543e+01 -7.694516e+00  0.000000e+00
   endloop
 endfacet
 facet normal  5.608638e-01 -8.279081e-01  0.000000e+00
   outer loop
     vertex -1.808772e+01 -8.429786e+01  1.000000e+02
     vertex -1.808772e+01 -8.429786e+01  0.000000e+00
     vertex -1.229999e+01 -8.037698e+01  0.000000e+00
   endloop
 endfacet
 facet normal  8.963221e-01 -4.434035e-01  0.000000e+00
   outer loop
     vertex  5.538543e+01 -7.694516e+00  1.000000e+02
     vertex  5.202880e+01 -1.447981e+01  1.000000e+02
     vertex  5.538543e+01 -7.694516e+00  0.000000e+00
   endloop
 endfacet
 facet normal  9.340244e-01 -3.572093e-01  0.000000e+00
   outer loop
     vertex  5.765955e+01 -1.748183e+00  1.000000e+02
     vertex  5.538543e+01 -7.694516e+00  1.000000e+02
     vertex  5.538543e+01 -7.694516e+00  0.000000e+00
   endloop
 endfacet
 facet normal  6.094308e-01 -7.928392e-01  0.000000e+00
   outer loop
     vertex -4.861389e+00 -7.465916e+01  1.000000e+02
     vertex -1.229999e+01 -8.037698e+01  0.000000e+00
     vertex -4.861389e+00 -7.465916e+01  0.000000e+00
   endloop
 endfacet
 facet normal  9.340244e-01 -3.572093e-01  0.000000e+00
   outer loop
     vertex  5.765955e+01 -1.748183e+00  1.000000e+02
     vertex  5.538543e+01 -7.694516e+00  0.000000e+00
     vertex  5.765955e+01 -1.748183e+00  0.000000e+00
   endloop
 endfacet
 facet normal  9.651074e-01 -2.618545e-01  0.000000e+00
   outer loop
     vertex  5.765955e+01 -1.748183e+00  1.000000e+02
     vertex  5.765955e+01 -1.748183e+00  0.000000e+00
     vertex  5.939484e+01  4.647492e+00  0.000000e+00
   endloop
 endfacet
 facet normal  9.651074e-01 -2.618545e-01  0.000000e+00
   outer loop
     vertex  5.939484e+01  4.647492e+00  1.000000e+02
     vertex  5.765955e+01 -1.748183e+00  1.000000e+02
     vertex  5.939484e+01  4.647492e+00  0.000000e+00
   endloop
 endfacet
 facet normal  9.819278e-01 -1.892559e-01  0.000000e+00
   outer loop
     vertex  6.070677e+01  1.145426e+01  1.000000e+02
     vertex  5.939484e+01  4.647492e+00  1.000000e+02
     vertex  5.939484e+01  4.647492e+00  0.000000e+00
   endloop
 endfacet
 facet normal  6.261123e-01 -7.797329e-01  0.000000e+00
   outer loop
     vertex  8.322600e+00 -6.407264e+01  1.000000e+02
     vertex -4.861389e+00 -7.465916e+01  1.000000e+02
     vertex  8.322600e+00 -6.407264e+01  0.000000e+00
   endloop
 endfacet
 facet normal  6.261123e-01 -7.797329e-01  0.000000e+00
   outer loop
     vertex -4.861389e+00 -7.465916e+01  1.000000e+02
     vertex -4.861389e+00 -7.465916e+01  0.000000e+00
     vertex  8.322600e+00 -6.407264e+01  0.000000e+00
   endloop
 endfacet
 facet normal  9.819278e-01 -1.892559e-01  0.000000e+00
   outer loop
     vertex  6.070677e+01  1.145426e+01  1.000000e+02
     vertex  5.939484e+01  4.647492e+00  0.000000e+00
     vertex  6.070677e+01  1.145426e+01  0.000000e+00
   endloop
 endfacet
 facet normal  6.323638e-01 -7.746715e-01  0.000000e+00
   outer loop
     vertex  1.487333e+01 -5.872528e+01  1.000000e+02
     vertex  8.322600e+00 -6.407264e+01  1.000000e+02
     vertex  1.487333e+01 -5.872528e+01  0.000000e+00
   endloop
 endfacet
 facet normal  9.962475e-01 -8.654988e-02  0.000000e+00
   outer loop
     vertex  6.070677e+01  1.145426e+01  1.000000e+02
     vertex  6.070677e+01  1.145426e+01  0.000000e+00
     vertex  6.113473e+01  1.638039e+01  0.000000e+00
   endloop
 endfacet
 facet normal  9.962475e-01 -8.654988e-02  0.000000e+00
   outer loop
     vertex  6.113473e+01  1.638039e+01  1.000000e+02
     vertex  6.070677e+01  1.145426e+01  1.000000e+02
     vertex  6.113473e+01  1.638039e+01  0.000000e+00
   endloop
 endfacet
 facet normal  9.987983e-01  4.900907e-02  0.000000e+00
   outer loop
     vertex  6.089548e+01  2.125617e+01  1.000000e+02
     vertex  6.113473e+01  1.638039e+01  1.000000e+02
     vertex  6.113473e+01  1.638039e+01  0.000000e+00
   endloop
 endfacet
 facet normal  6.323638e-01 -7.746715e-01  0.000000e+00
   outer loop
     vertex  8.322600e+00 -6.407264e+01  1.000000e+02
     vertex  8.322600e+00 -6.407264e+01  0.000000e+00
     vertex  1.487333e+01 -5.872528e+01  0.000000e+00
   endloop
 endfacet
 facet normal  9.987983e-01  4.900907e-02  0.000000e+00
   outer loop
     vertex  6.089548e+01  2.125617e+01  1.000000e+02
     vertex  6.113473e+01  1.638039e+01  0.000000e+00
     vertex  6.089548e+01  2.125617e+01  0.000000e+00
   endloop
 endfacet
 facet normal  9.841784e-01  1.771803e-01  0.000000e+00
   outer loop
     vertex  6.089548e+01  2.125617e+01  1.000000e+02
     vertex  6.089548e+01  2.125617e+01  0.000000e+00
     vertex  5.996614e+01  2.641839e+01  0.000000e+00
   endloop
 endfacet
 facet normal  9.841784e-01  1.771803e-01  0.000000e+00
   outer loop
     vertex  5.996614e+01  2.641839e+01  1.000000e+02
     vertex  6.089548e+01  2.125617e+01  1.000000e+02
     vertex  5.996614e+01  2.641839e+01  0.000000e+00
   endloop
 endfacet
 facet normal  6.712699e-01 -7.412130e-01  0.000000e+00
   outer loop
     vertex  2.113605e+01 -5.305353e+01  1.000000e+02
     vertex  1.487333e+01 -5.872528e+01  1.000000e+02
     vertex  2.113605e+01 -5.305353e+01  0.000000e+00
   endloop
 endfacet
 facet normal  9.600542e-01  2.798142e-01  0.000000e+00
   outer loop
     vertex  5.996614e+01  2.641839e+01  1.000000e+02
     vertex  5.996614e+01  2.641839e+01  0.000000e+00
     vertex  5.832147e+01  3.206130e+01  0.000000e+00
   endloop
 endfacet
 facet normal  9.600542e-01  2.798142e-01  0.000000e+00
   outer loop
     vertex  5.832147e+01  3.206130e+01  1.000000e+02
     vertex  5.996614e+01  2.641839e+01  1.000000e+02
     vertex  5.832147e+01  3.206130e+01  0.000000e+00
   endloop
 endfacet
 facet normal  6.712699e-01 -7.412130e-01  0.000000e+00
   outer loop
     vertex  1.487333e+01 -5.872528e+01  1.000000e+02
     vertex  1.487333e+01 -5.872528e+01  0.000000e+00
     vertex  2.113605e+01 -5.305353e+01  0.000000e+00
   endloop
 endfacet
 facet normal  9.384890e-01  3.453092e-01  0.000000e+00
   outer loop
     vertex  5.832147e+01  3.206130e+01  1.000000e+02
     vertex  5.832147e+01  3.206130e+01  0.000000e+00
     vertex  5.637856e+01  3.734179e+01  0.000000e+00
   endloop
 endfacet
 facet normal  9.384890e-01  3.453092e-01  0.000000e+00
   outer loop
     vertex  5.637856e+01  3.734179e+01  1.000000e+02
     vertex  5.832147e+01  3.206130e+01  1.000000e+02
     vertex  5.637856e+01  3.734179e+01  0.000000e+00
   endloop
 endfacet
 facet normal  8.806151e-01  4.738322e-01  0.000000e+00
   outer loop
     vertex  5.637856e+01  3.734179e+01  1.000000e+02
     vertex  5.637856e+01  3.734179e+01  0.000000e+00
     vertex  5.468957e+01  4.048078e+01  0.000000e+00
   endloop
 endfacet
 facet normal  7.167693e-01 -6.973104e-01  0.000000e+00
   outer loop
     vertex  2.796216e+01 -4.603694e+01  1.000000e+02
     vertex  2.113605e+01 -5.305353e+01  1.000000e+02
     vertex  2.796216e+01 -4.603694e+01  0.000000e+00
   endloop
 endfacet
 facet normal  8.806151e-01  4.738322e-01  0.000000e+00
   outer loop
     vertex  5.468957e+01  4.048078e+01  1.000000e+02
     vertex  5.637856e+01  3.734179e+01  1.000000e+02
     vertex  5.468957e+01  4.048078e+01  0.000000e+00
   endloop
 endfacet
 facet normal  9.298775e-01 -3.678694e-01  0.000000e+00
   outer loop
     vertex  6.544315e+01  8.718663e+01  0.000000e+00
     vertex  6.544315e+01  8.718663e+01  1.000000e+02
     vertex  6.137369e+01  7.690009e+01  1.000000e+02
   endloop
 endfacet
 facet normal  9.298775e-01 -3.678694e-01  0.000000e+00
   outer loop
     vertex  6.137369e+01  7.690009e+01  0.000000e+00
     vertex  6.544315e+01  8.718663e+01  0.000000e+00
     vertex  6.137369e+01  7.690009e+01  1.000000e+02
   endloop
 endfacet
 facet normal  9.097182e-01 -4.152263e-01  0.000000e+00
   outer loop
     vertex  5.586183e+01  6.482418e+01  0.000000e+00
     vertex  6.137369e+01  7.690009e+01  1.000000e+02
     vertex  5.586183e+01  6.482418e+01  1.000000e+02
   endloop
 endfacet
 facet normal  9.097182e-01 -4.152263e-01  0.000000e+00
   outer loop
     vertex  5.586183e+01  6.482418e+01  0.000000e+00
     vertex  6.137369e+01  7.690009e+01  0.000000e+00
     vertex  6.137369e+01  7.690009e+01  1.000000e+02
   endloop
 endfacet
 facet normal  8.872635e-01 -4.612629e-01  0.000000e+00
   outer loop
     vertex  5.225764e+01  5.789133e+01  0.000000e+00
     vertex  5.586183e+01  6.482418e+01  1.000000e+02
     vertex  5.225764e+01  5.789133e+01  1.000000e+02
   endloop
 endfacet
 facet normal  8.872635e-01 -4.612629e-01  0.000000e+00
   outer loop
     vertex  5.225764e+01  5.789133e+01  0.000000e+00
     vertex  5.586183e+01  6.482418e+01  0.000000e+00
     vertex  5.586183e+01  6.482418e+01  1.000000e+02
   endloop
 endfacet
 facet normal  8.524129e-01 -5.228692e-01  0.000000e+00
   outer loop
     vertex  4.987491e+01  5.400685e+01  0.000000e+00
     vertex  5.225764e+01  5.789133e+01  1.000000e+02
     vertex  4.987491e+01  5.400685e+01  1.000000e+02
   endloop
 endfacet
 facet normal  8.524129e-01 -5.228692e-01  0.000000e+00
   outer loop
     vertex  4.987491e+01  5.400685e+01  0.000000e+00
     vertex  5.225764e+01  5.789133e+01  0.000000e+00
     vertex  5.225764e+01  5.789133e+01  1.000000e+02
   endloop
 endfacet
 facet normal  8.064074e-01 -5.913604e-01  0.000000e+00
   outer loop
     vertex  4.717687e+01  5.032767e+01  0.000000e+00
     vertex  4.987491e+01  5.400685e+01  1.000000e+02
     vertex  4.717687e+01  5.032767e+01  1.000000e+02
   endloop
 endfacet
 facet normal  8.064074e-01 -5.913604e-01  0.000000e+00
   outer loop
     vertex  4.717687e+01  5.032767e+01  0.000000e+00
     vertex  4.987491e+01  5.400685e+01  0.000000e+00
     vertex  4.987491e+01  5.400685e+01  1.000000e+02
   endloop
 endfacet
 facet normal  0.000000e+00 -0.000000e+00 -1.000000e+00
   outer loop
     vertex  3.254523e+00 -3.527450e+00  0.000000e+00
     vertex  5.939484e+01  4.647492e+00  0.000000e+00
     vertex  5.765955e+01 -1.748183e+00  0.000000e+00
   endloop
 endfacet
 facet normal  0.000000e+00  0.000000e+00 -1.000000e+00
   outer loop
     vertex  4.352664e+00 -6.052494e+00  0.000000e+00
     vertex  3.254523e+00 -3.527450e+00  0.000000e+00
     vertex  5.765955e+01 -1.748183e+00  0.000000e+00
   endloop
 endfacet
 facet normal  0.000000e+00  0.000000e+00 -1.000000e+00
   outer loop
     vertex -4.030044e+01  6.189939e+00  0.000000e+00
     vertex -4.310491e+01  4.607329e+01  0.000000e+00
     vertex -3.633023e+01  5.937913e+00  0.000000e+00
   endloop
 endfacet
 facet normal  0.000000e+00 -0.000000e+00 -1.000000e+00
   outer loop
     vertex -7.634019e+01  3.317476e+01  0.000000e+00
     vertex -7.622934e+01  3.357830e+01  0.000000e+00
     vertex -7.635375e+01  3.276872e+01  0.000000e+00
   endloop
 endfacet
 facet normal  0.000000e+00 -0.000000e+00 -1.000000e+00
   outer loop
     vertex  4.352664e+00 -6.052494e+00  0.000000e+00
     vertex  5.765955e+01 -1.748183e+00  0.000000e+00
     vertex  5.538543e+01 -7.694516e+00  0.000000e+00
   endloop
 endfacet
 facet normal  0.000000e+00 -0.000000e+00 -1.000000e+00
   outer loop
     vertex  5.267273e+01  8.374088e+01  0.000000e+00
     vertex  6.544315e+01  8.718663e+01  0.000000e+00
     vertex  6.137369e+01  7.690009e+01  0.000000e+00
   endloop
 endfacet
 facet normal  0.000000e+00  0.000000e+00 -1.000000e+00
   outer loop
     vertex -4.310491e+01  4.607329e+01  0.000000e+00
     vertex -4.142752e+01  4.704856e+01  0.000000e+00
     vertex -2.390971e+01  9.471154e+00  0.000000e+00
   endloop
 endfacet
 facet normal  0.000000e+00 -0.000000e+00 -1.000000e+00
   outer loop
     vertex -7.544478e+01  3.466759e+01  0.000000e+00
     vertex -7.462309e+01  3.524161e+01  0.000000e+00
     vertex -7.627381e+01  3.230098e+01  0.000000e+00
   endloop
 endfacet
 facet normal  0.000000e+00 -0.000000e+00 -1.000000e+00
   outer loop
     vertex -7.595704e+01  3.408531e+01  0.000000e+00
     vertex -7.544478e+01  3.466759e+01  0.000000e+00
     vertex -7.627381e+01  3.230098e+01  0.000000e+00
   endloop
 endfacet
 facet normal  0.000000e+00 -0.000000e+00 -1.000000e+00
   outer loop
     vertex -7.622934e+01  3.357830e+01  0.000000e+00
     vertex -7.595704e+01  3.408531e+01  0.000000e+00
     vertex -7.627381e+01  3.230098e+01  0.000000e+00
   endloop
 endfacet
 facet normal  0.000000e+00 -0.000000e+00 -1.000000e+00
   outer loop
     vertex  4.352664e+00 -6.052494e+00  0.000000e+00
     vertex  5.538543e+01 -7.694516e+00  0.000000e+00
     vertex  5.202880e+01 -1.447981e+01  0.000000e+00
   endloop
 endfacet
 facet normal  0.000000e+00  0.000000e+00 -1.000000e+00
   outer loop
     vertex  5.277984e+00 -9.694321e+00  0.000000e+00
     vertex  4.352664e+00 -6.052494e+00  0.000000e+00
     vertex  5.202880e+01 -1.447981e+01  0.000000e+00
   endloop
 endfacet
 facet normal  0.000000e+00  0.000000e+00 -1.000000e+00
   outer loop
     vertex -4.142752e+01  4.704856e+01  0.000000e+00
     vertex -3.927461e+01  4.899519e+01  0.000000e+00
     vertex -2.206230e+01  1.003633e+01  0.000000e+00
   endloop
 endfacet
 facet normal  0.000000e+00 -0.000000e+00 -1.000000e+00
   outer loop
     vertex -7.635375e+01  3.276872e+01  0.000000e+00
     vertex -7.622934e+01  3.357830e+01  0.000000e+00
     vertex -7.627381e+01  3.230098e+01  0.000000e+00
   endloop
 endfacet
 facet normal  0.000000e+00  0.000000e+00 -1.000000e+00
   outer loop
     vertex -2.390971e+01  9.471154e+00  0.000000e+00
     vertex -4.142752e+01  4.704856e+01  0.000000e+00
     vertex -2.206230e+01  1.003633e+01  0.000000e+00
   endloop
 endfacet
 facet normal  0.000000e+00 -0.000000e+00 -1.000000e+00
   outer loop
     vertex -4.310491e+01  4.607329e+01  0.000000e+00
     vertex -2.390971e+01  9.471154e+00  0.000000e+00
     vertex -2.569625e+01  8.729969e+00  0.000000e+00
   endloop
 endfacet
 facet normal  0.000000e+00 -0.000000e+00 -1.000000e+00
   outer loop
     vertex -7.462309e+01  3.524161e+01  0.000000e+00
     vertex -6.793146e+01  3.799517e+01  0.000000e+00
     vertex -7.481170e+01  2.839342e+01  0.000000e+00
   endloop
 endfacet
 facet normal  0.000000e+00 -0.000000e+00 -1.000000e+00
   outer loop
     vertex -7.627381e+01  3.230098e+01  0.000000e+00
     vertex -7.462309e+01  3.524161e+01  0.000000e+00
     vertex -7.481170e+01  2.839342e+01  0.000000e+00
   endloop
 endfacet
 facet normal  0.000000e+00  0.000000e+00 -1.000000e+00
   outer loop
     vertex -3.633023e+01  5.937913e+00  0.000000e+00
     vertex -4.310491e+01  4.607329e+01  0.000000e+00
     vertex -3.260757e+01  6.287878e+00  0.000000e+00
   endloop
 endfacet
 facet normal  0.000000e+00 -0.000000e+00 -1.000000e+00
   outer loop
     vertex  5.277984e+00 -9.694321e+00  0.000000e+00
     vertex  5.202880e+01 -1.447981e+01  0.000000e+00
     vertex  4.776477e+01 -2.175558e+01  0.000000e+00
   endloop
 endfacet
 facet normal  0.000000e+00 -0.000000e+00 -1.000000e+00
   outer loop
     vertex -4.310491e+01  4.607329e+01  0.000000e+00
     vertex -2.569625e+01  8.729969e+00  0.000000e+00
     vertex -2.923216e+01  7.189868e+00  0.000000e+00
   endloop
 endfacet
 facet normal  0.000000e+00 -0.000000e+00 -1.000000e+00
   outer loop
     vertex -7.481170e+01  2.839342e+01  0.000000e+00
     vertex -6.793146e+01  3.799517e+01  0.000000e+00
     vertex -7.380288e+01  2.656629e+01  0.000000e+00
   endloop
 endfacet
 facet normal  0.000000e+00 -0.000000e+00 -1.000000e+00
   outer loop
     vertex -3.886787e+01  5.866578e+01  0.000000e+00
     vertex -3.678137e+01  6.006603e+01  0.000000e+00
     vertex -3.906594e+01  5.819932e+01  0.000000e+00
   endloop
 endfacet
 facet normal  0.000000e+00  0.000000e+00 -1.000000e+00
   outer loop
     vertex  6.413243e+00 -1.592886e+01  0.000000e+00
     vertex  5.277984e+00 -9.694321e+00  0.000000e+00
     vertex  4.776477e+01 -2.175558e+01  0.000000e+00
   endloop
 endfacet
 facet normal  0.000000e+00  0.000000e+00 -1.000000e+00
   outer loop
     vertex -3.260757e+01  6.287878e+00  0.000000e+00
     vertex -4.310491e+01  4.607329e+01  0.000000e+00
     vertex -2.923216e+01  7.189868e+00  0.000000e+00
   endloop
 endfacet
 facet normal  0.000000e+00 -0.000000e+00 -1.000000e+00
   outer loop
     vertex -3.898177e+01  5.847653e+01  0.000000e+00
     vertex -3.886787e+01  5.866578e+01  0.000000e+00
     vertex -3.906594e+01  5.819932e+01  0.000000e+00
   endloop
 endfacet
 facet normal  0.000000e+00  0.000000e+00 -1.000000e+00
   outer loop
     vertex -3.927461e+01  4.899519e+01  0.000000e+00
     vertex -3.873963e+01  4.969915e+01  0.000000e+00
     vertex -1.901639e+01  1.040240e+01  0.000000e+00
   endloop
 endfacet
 facet normal  0.000000e+00 -0.000000e+00 -1.000000e+00
   outer loop
     vertex -7.380288e+01  2.656629e+01  0.000000e+00
     vertex -6.793146e+01  3.799517e+01  0.000000e+00
     vertex -7.262565e+01  2.483199e+01  0.000000e+00
   endloop
 endfacet
 facet normal  0.000000e+00  0.000000e+00 -1.000000e+00
   outer loop
     vertex  3.570051e+01  7.890837e+01  0.000000e+00
     vertex  5.267273e+01  8.374088e+01  0.000000e+00
     vertex  5.586183e+01  6.482418e+01  0.000000e+00
   endloop
 endfacet
 facet normal  0.000000e+00  0.000000e+00 -1.000000e+00
   outer loop
     vertex -2.206230e+01  1.003633e+01  0.000000e+00
     vertex -3.927461e+01  4.899519e+01  0.000000e+00
     vertex -1.901639e+01  1.040240e+01  0.000000e+00
   endloop
 endfacet
 facet normal  0.000000e+00 -0.000000e+00 -1.000000e+00
   outer loop
     vertex -3.906594e+01  5.819932e+01  0.000000e+00
     vertex -3.678137e+01  6.006603e+01  0.000000e+00
     vertex -3.894359e+01  5.606978e+01  0.000000e+00
   endloop
 endfacet
 facet normal  0.000000e+00 -0.000000e+00 -1.000000e+00
   outer loop
     vertex  5.267273e+01  8.374088e+01  0.000000e+00
     vertex  6.137369e+01  7.690009e+01  0.000000e+00
     vertex  5.586183e+01  6.482418e+01  0.000000e+00
   endloop
 endfacet
 facet normal  0.000000e+00 -0.000000e+00 -1.000000e+00
   outer loop
     vertex  6.413243e+00 -1.592886e+01  0.000000e+00
     vertex  4.776477e+01 -2.175558e+01  0.000000e+00
     vertex  4.299201e+01 -2.856834e+01  0.000000e+00
   endloop
 endfacet
 facet normal  0.000000e+00  0.000000e+00 -1.000000e+00
   outer loop
     vertex  6.643934e+00 -2.003997e+01  0.000000e+00
     vertex  6.413243e+00 -1.592886e+01  0.000000e+00
     vertex  4.299201e+01 -2.856834e+01  0.000000e+00
   endloop
 endfacet
 facet normal  0.000000e+00  0.000000e+00 -1.000000e+00
   outer loop
     vertex -3.856284e+01  5.011848e+01  0.000000e+00
     vertex -1.726698e+01  6.776479e+01  0.000000e+00
     vertex -1.533645e+01  1.018729e+01  0.000000e+00
   endloop
 endfacet
 facet normal  0.000000e+00  0.000000e+00 -1.000000e+00
   outer loop
     vertex -3.873963e+01  4.969915e+01  0.000000e+00
     vertex -3.856284e+01  5.011848e+01  0.000000e+00
     vertex -1.533645e+01  1.018729e+01  0.000000e+00
   endloop
 endfacet
 facet normal  0.000000e+00  0.000000e+00 -1.000000e+00
   outer loop
     vertex -1.901639e+01  1.040240e+01  0.000000e+00
     vertex -3.873963e+01  4.969915e+01  0.000000e+00
     vertex -1.533645e+01  1.018729e+01  0.000000e+00
   endloop
 endfacet
 facet normal  0.000000e+00 -0.000000e+00 -1.000000e+00
   outer loop
     vertex -7.262565e+01  2.483199e+01  0.000000e+00
     vertex -6.793146e+01  3.799517e+01  0.000000e+00
     vertex -7.017531e+01  2.201937e+01  0.000000e+00
   endloop
 endfacet
 facet normal  0.000000e+00  0.000000e+00 -1.000000e+00
   outer loop
     vertex -1.533645e+01  1.018729e+01  0.000000e+00
     vertex -1.726698e+01  6.776479e+01  0.000000e+00
     vertex -1.226456e+01  9.410684e+00  0.000000e+00
   endloop
 endfacet
 facet normal  0.000000e+00  0.000000e+00 -1.000000e+00
   outer loop
     vertex  6.250506e+00 -2.444008e+01  0.000000e+00
     vertex  6.643934e+00 -2.003997e+01  0.000000e+00
     vertex  3.760943e+01 -3.522821e+01  0.000000e+00
   endloop
 endfacet
 facet normal  0.000000e+00 -0.000000e+00 -1.000000e+00
   outer loop
     vertex -1.025453e+01  7.022219e+01  0.000000e+00
     vertex -3.735014e+00  7.189728e+01  0.000000e+00
     vertex -1.226456e+01  9.410684e+00  0.000000e+00
   endloop
 endfacet
 facet normal  0.000000e+00 -0.000000e+00 -1.000000e+00
   outer loop
     vertex  6.643934e+00 -2.003997e+01  0.000000e+00
     vertex  4.299201e+01 -2.856834e+01  0.000000e+00
     vertex  3.760943e+01 -3.522821e+01  0.000000e+00
   endloop
 endfacet
 facet normal  0.000000e+00 -0.000000e+00 -1.000000e+00
   outer loop
     vertex -1.726698e+01  6.776479e+01  0.000000e+00
     vertex -1.025453e+01  7.022219e+01  0.000000e+00
     vertex -1.226456e+01  9.410684e+00  0.000000e+00
   endloop
 endfacet
 facet normal  0.000000e+00  0.000000e+00 -1.000000e+00
   outer loop
     vertex  5.154284e+00 -3.007779e+01  0.000000e+00
     vertex  6.250506e+00 -2.444008e+01  0.000000e+00
     vertex  3.760943e+01 -3.522821e+01  0.000000e+00
   endloop
 endfacet
 facet normal  0.000000e+00 -0.000000e+00 -1.000000e+00
   outer loop
     vertex -6.793146e+01  3.799517e+01  0.000000e+00
     vertex -6.079502e+01  4.043626e+01  0.000000e+00
     vertex -6.709583e+01  1.947188e+01  0.000000e+00
   endloop
 endfacet
 facet normal  0.000000e+00 -0.000000e+00 -1.000000e+00
   outer loop
     vertex -3.678137e+01  6.006603e+01  0.000000e+00
     vertex -3.273497e+01  6.206196e+01  0.000000e+00
     vertex -3.866057e+01  5.329081e+01  0.000000e+00
   endloop
 endfacet
 facet normal  0.000000e+00  0.000000e+00 -1.000000e+00
   outer loop
     vertex -7.017531e+01  2.201937e+01  0.000000e+00
     vertex -6.793146e+01  3.799517e+01  0.000000e+00
     vertex -6.709583e+01  1.947188e+01  0.000000e+00
   endloop
 endfacet
 facet normal  0.000000e+00 -0.000000e+00 -1.000000e+00
   outer loop
     vertex -3.894359e+01  5.606978e+01  0.000000e+00
     vertex -3.678137e+01  6.006603e+01  0.000000e+00
     vertex -3.866057e+01  5.329081e+01  0.000000e+00
   endloop
 endfacet
 facet normal  0.000000e+00 -0.000000e+00 -1.000000e+00
   outer loop
     vertex  3.570051e+01  7.890837e+01  0.000000e+00
     vertex  5.586183e+01  6.482418e+01  0.000000e+00
     vertex  5.225764e+01  5.789133e+01  0.000000e+00
   endloop
 endfacet
 facet normal  0.000000e+00 -0.000000e+00 -1.000000e+00
   outer loop
     vertex -2.622782e+01  6.440091e+01  0.000000e+00
     vertex -1.726698e+01  6.776479e+01  0.000000e+00
     vertex -3.856284e+01  5.011848e+01  0.000000e+00
   endloop
 endfacet
 facet normal  0.000000e+00  0.000000e+00 -1.000000e+00
   outer loop
     vertex  5.094990e+01  4.543707e+01  0.000000e+00
     vertex  5.637856e+01  3.734179e+01  0.000000e+00
     vertex  5.832147e+01  3.206130e+01  0.000000e+00
   endloop
 endfacet
 facet normal  0.000000e+00 -0.000000e+00 -1.000000e+00
   outer loop
     vertex -3.273497e+01  6.206196e+01  0.000000e+00
     vertex -2.622782e+01  6.440091e+01  0.000000e+00
     vertex -3.856284e+01  5.011848e+01  0.000000e+00
   endloop
 endfacet
 facet normal  0.000000e+00 -0.000000e+00 -1.000000e+00
   outer loop
     vertex -3.735014e+00  7.189728e+01  0.000000e+00
     vertex  5.727656e+00  7.346154e+01  0.000000e+00
     vertex -9.308003e+00  7.977011e+00  0.000000e+00
   endloop
 endfacet
 facet normal  0.000000e+00  0.000000e+00 -1.000000e+00
   outer loop
     vertex  2.939898e+00 -3.830711e+01  0.000000e+00
     vertex  5.154284e+00 -3.007779e+01  0.000000e+00
     vertex  2.796216e+01 -4.603694e+01  0.000000e+00
   endloop
 endfacet
 facet normal  0.000000e+00 -0.000000e+00 -1.000000e+00
   outer loop
     vertex -1.226456e+01  9.410684e+00  0.000000e+00
     vertex -3.735014e+00  7.189728e+01  0.000000e+00
     vertex -9.308003e+00  7.977011e+00  0.000000e+00
   endloop
 endfacet
 facet normal  0.000000e+00 -0.000000e+00 -1.000000e+00
   outer loop
     vertex -3.866057e+01  5.329081e+01  0.000000e+00
     vertex -3.273497e+01  6.206196e+01  0.000000e+00
     vertex -3.856284e+01  5.011848e+01  0.000000e+00
   endloop
 endfacet
 facet normal  0.000000e+00 -0.000000e+00 -1.000000e+00
   outer loop
     vertex  5.727656e+00  7.346154e+01  0.000000e+00
     vertex  4.717687e+01  5.032767e+01  0.000000e+00
     vertex -9.308003e+00  7.977011e+00  0.000000e+00
   endloop
 endfacet
 facet normal  0.000000e+00 -0.000000e+00 -1.000000e+00
   outer loop
     vertex  5.154284e+00 -3.007779e+01  0.000000e+00
     vertex  3.760943e+01 -3.522821e+01  0.000000e+00
     vertex  2.796216e+01 -4.603694e+01  0.000000e+00
   endloop
 endfacet
 facet normal  0.000000e+00 -0.000000e+00 -1.000000e+00
   outer loop
     vertex  3.570051e+01  7.890837e+01  0.000000e+00
     vertex  5.225764e+01  5.789133e+01  0.000000e+00
     vertex  4.987491e+01  5.400685e+01  0.000000e+00
   endloop
 endfacet
 facet normal  0.000000e+00  0.000000e+00 -1.000000e+00
   outer loop
     vertex  2.584124e+01  7.662256e+01  0.000000e+00
     vertex  3.570051e+01  7.890837e+01  0.000000e+00
     vertex  4.717687e+01  5.032767e+01  0.000000e+00
   endloop
 endfacet
 facet normal  0.000000e+00  0.000000e+00 -1.000000e+00
   outer loop
     vertex  1.522648e+01  7.481107e+01  0.000000e+00
     vertex  2.584124e+01  7.662256e+01  0.000000e+00
     vertex  4.717687e+01  5.032767e+01  0.000000e+00
   endloop
 endfacet
 facet normal  0.000000e+00  0.000000e+00 -1.000000e+00
   outer loop
     vertex  5.727656e+00  7.346154e+01  0.000000e+00
     vertex  1.522648e+01  7.481107e+01  0.000000e+00
     vertex  4.717687e+01  5.032767e+01  0.000000e+00
   endloop
 endfacet
 facet normal  0.000000e+00  0.000000e+00 -1.000000e+00
   outer loop
     vertex  3.698708e-01 -4.581113e+01  0.000000e+00
     vertex  2.939898e+00 -3.830711e+01  0.000000e+00
     vertex  2.113605e+01 -5.305353e+01  0.000000e+00
   endloop
 endfacet
 facet normal  0.000000e+00 -0.000000e+00 -1.000000e+00
   outer loop
     vertex -9.308003e+00  7.977011e+00  0.000000e+00
     vertex  4.717687e+01  5.032767e+01  0.000000e+00
     vertex -2.779479e+00  3.838624e+00  0.000000e+00
   endloop
 endfacet
 facet normal  0.000000e+00 -0.000000e+00 -1.000000e+00
   outer loop
     vertex  2.939898e+00 -3.830711e+01  0.000000e+00
     vertex  2.796216e+01 -4.603694e+01  0.000000e+00
     vertex  2.113605e+01 -5.305353e+01  0.000000e+00
   endloop
 endfacet
 facet normal  0.000000e+00 -0.000000e+00 -1.000000e+00
   outer loop
     vertex  3.570051e+01  7.890837e+01  0.000000e+00
     vertex  4.987491e+01  5.400685e+01  0.000000e+00
     vertex  4.717687e+01  5.032767e+01  0.000000e+00
   endloop
 endfacet
 facet normal  0.000000e+00  0.000000e+00 -1.000000e+00
   outer loop
     vertex -2.475678e+00 -5.234983e+01  0.000000e+00
     vertex  3.698708e-01 -4.581113e+01  0.000000e+00
     vertex  1.487333e+01 -5.872528e+01  0.000000e+00
   endloop
 endfacet
 facet normal  0.000000e+00 -0.000000e+00 -1.000000e+00
   outer loop
     vertex  4.717687e+01  5.032767e+01  0.000000e+00
     vertex  5.094990e+01  4.543707e+01  0.000000e+00
     vertex -2.779479e+00  3.838624e+00  0.000000e+00
   endloop
 endfacet
 facet normal  0.000000e+00 -0.000000e+00 -1.000000e+00
   outer loop
     vertex  3.698708e-01 -4.581113e+01  0.000000e+00
     vertex  2.113605e+01 -5.305353e+01  0.000000e+00
     vertex  1.487333e+01 -5.872528e+01  0.000000e+00
   endloop
 endfacet
 facet normal  0.000000e+00 -0.000000e+00 -1.000000e+00
   outer loop
     vertex  5.094990e+01  4.543707e+01  0.000000e+00
     vertex  5.832147e+01  3.206130e+01  0.000000e+00
     vertex -9.208403e-01  1.854256e+00  0.000000e+00
   endloop
 endfacet
 facet normal  0.000000e+00 -0.000000e+00 -1.000000e+00
   outer loop
     vertex -6.079502e+01  4.043626e+01  0.000000e+00
     vertex -5.192655e+01  4.302987e+01  0.000000e+00
     vertex -6.095049e+01  1.536173e+01  0.000000e+00
   endloop
 endfacet
 facet normal  0.000000e+00  0.000000e+00 -1.000000e+00
   outer loop
     vertex -6.313407e+00 -5.954773e+01  0.000000e+00
     vertex -2.475678e+00 -5.234983e+01  0.000000e+00
     vertex  8.322600e+00 -6.407264e+01  0.000000e+00
   endloop
 endfacet
 facet normal  0.000000e+00 -0.000000e+00 -1.000000e+00
   outer loop
     vertex -2.779479e+00  3.838624e+00  0.000000e+00
     vertex  5.094990e+01  4.543707e+01  0.000000e+00
     vertex -9.208403e-01  1.854256e+00  0.000000e+00
   endloop
 endfacet
 facet normal  0.000000e+00 -0.000000e+00 -1.000000e+00
   outer loop
     vertex -6.709583e+01  1.947188e+01  0.000000e+00
     vertex -6.079502e+01  4.043626e+01  0.000000e+00
     vertex -6.095049e+01  1.536173e+01  0.000000e+00
   endloop
 endfacet
 facet normal  0.000000e+00 -0.000000e+00 -1.000000e+00
   outer loop
     vertex -2.475678e+00 -5.234983e+01  0.000000e+00
     vertex  1.487333e+01 -5.872528e+01  0.000000e+00
     vertex  8.322600e+00 -6.407264e+01  0.000000e+00
   endloop
 endfacet
 facet normal  0.000000e+00 -0.000000e+00 -1.000000e+00
   outer loop
     vertex -5.192655e+01  4.302987e+01  0.000000e+00
     vertex -4.749738e+01  4.443386e+01  0.000000e+00
     vertex -5.466635e+01  1.150317e+01  0.000000e+00
   endloop
 endfacet
 facet normal  0.000000e+00 -0.000000e+00 -1.000000e+00
   outer loop
     vertex -6.095049e+01  1.536173e+01  0.000000e+00
     vertex -5.192655e+01  4.302987e+01  0.000000e+00
     vertex -5.466635e+01  1.150317e+01  0.000000e+00
   endloop
 endfacet
 facet normal  0.000000e+00 -0.000000e+00 -1.000000e+00
   outer loop
     vertex -9.208403e-01  1.854256e+00  0.000000e+00
     vertex  5.832147e+01  3.206130e+01  0.000000e+00
     vertex  1.259337e+00 -8.013625e-01  0.000000e+00
   endloop
 endfacet
 facet normal  0.000000e+00  0.000000e+00 -1.000000e+00
   outer loop
     vertex -1.290874e+01 -7.111834e+01  0.000000e+00
     vertex -6.313407e+00 -5.954773e+01  0.000000e+00
     vertex -4.861389e+00 -7.465916e+01  0.000000e+00
   endloop
 endfacet
 facet normal  0.000000e+00 -0.000000e+00 -1.000000e+00
   outer loop
     vertex -6.313407e+00 -5.954773e+01  0.000000e+00
     vertex  8.322600e+00 -6.407264e+01  0.000000e+00
     vertex -4.861389e+00 -7.465916e+01  0.000000e+00
   endloop
 endfacet
 facet normal  0.000000e+00 -0.000000e+00 -1.000000e+00
   outer loop
     vertex  5.996614e+01  2.641839e+01  0.000000e+00
     vertex  6.089548e+01  2.125617e+01  0.000000e+00
     vertex  1.259337e+00 -8.013625e-01  0.000000e+00
   endloop
 endfacet
 facet normal  0.000000e+00 -0.000000e+00 -1.000000e+00
   outer loop
     vertex  5.832147e+01  3.206130e+01  0.000000e+00
     vertex  5.996614e+01  2.641839e+01  0.000000e+00
     vertex  1.259337e+00 -8.013625e-01  0.000000e+00
   endloop
 endfacet
 facet normal  0.000000e+00 -0.000000e+00 -1.000000e+00
   outer loop
     vertex -5.466635e+01  1.150317e+01  0.000000e+00
     vertex -4.749738e+01  4.443386e+01  0.000000e+00
     vertex -4.903295e+01  8.739569e+00  0.000000e+00
   endloop
 endfacet
 facet normal  0.000000e+00  0.000000e+00 -1.000000e+00
   outer loop
     vertex  1.259337e+00 -8.013625e-01  0.000000e+00
     vertex  6.089548e+01  2.125617e+01  0.000000e+00
     vertex  6.113473e+01  1.638039e+01  0.000000e+00
   endloop
 endfacet
 facet normal  0.000000e+00 -0.000000e+00 -1.000000e+00
   outer loop
     vertex  1.259337e+00 -8.013625e-01  0.000000e+00
     vertex  6.113473e+01  1.638039e+01  0.000000e+00
     vertex  3.254523e+00 -3.527450e+00  0.000000e+00
   endloop
 endfacet
 facet normal  0.000000e+00  0.000000e+00 -1.000000e+00
   outer loop
     vertex -1.735586e+01 -7.900257e+01  0.000000e+00
     vertex -1.290874e+01 -7.111834e+01  0.000000e+00
     vertex -1.229999e+01 -8.037698e+01  0.000000e+00
   endloop
 endfacet
 facet normal  0.000000e+00 -0.000000e+00 -1.000000e+00
   outer loop
     vertex -1.290874e+01 -7.111834e+01  0.000000e+00
     vertex -4.861389e+00 -7.465916e+01  0.000000e+00
     vertex -1.229999e+01 -8.037698e+01  0.000000e+00
   endloop
 endfacet
 facet normal  0.000000e+00 -0.000000e+00 -1.000000e+00
   outer loop
     vertex  3.254523e+00 -3.527450e+00  0.000000e+00
     vertex  6.113473e+01  1.638039e+01  0.000000e+00
     vertex  6.070677e+01  1.145426e+01  0.000000e+00
   endloop
 endfacet
 facet normal  0.000000e+00 -0.000000e+00 -1.000000e+00
   outer loop
     vertex -4.749738e+01  4.443386e+01  0.000000e+00
     vertex -4.310491e+01  4.607329e+01  0.000000e+00
     vertex -4.449711e+01  7.094208e+00  0.000000e+00
   endloop
 endfacet
 facet normal  0.000000e+00 -0.000000e+00 -1.000000e+00
   outer loop
     vertex -2.050876e+01 -8.354780e+01  0.000000e+00
     vertex -1.735586e+01 -7.900257e+01  0.000000e+00
     vertex -1.808772e+01 -8.429786e+01  0.000000e+00
   endloop
 endfacet
 facet normal  0.000000e+00  0.000000e+00 -1.000000e+00
   outer loop
     vertex -4.903295e+01  8.739569e+00  0.000000e+00
     vertex -4.749738e+01  4.443386e+01  0.000000e+00
     vertex -4.449711e+01  7.094208e+00  0.000000e+00
   endloop
 endfacet
 facet normal  0.000000e+00 -0.000000e+00 -1.000000e+00
   outer loop
     vertex -1.735586e+01 -7.900257e+01  0.000000e+00
     vertex -1.229999e+01 -8.037698e+01  0.000000e+00
     vertex -1.808772e+01 -8.429786e+01  0.000000e+00
   endloop
 endfacet
 facet normal  0.000000e+00 -0.000000e+00 -1.000000e+00
   outer loop
     vertex  3.254523e+00 -3.527450e+00  0.000000e+00
     vertex  6.070677e+01  1.145426e+01  0.000000e+00
     vertex  5.939484e+01  4.647492e+00  0.000000e+00
   endloop
 endfacet
 facet normal  0.000000e+00  0.000000e+00 -1.000000e+00
   outer loop
     vertex -4.449711e+01  7.094208e+00  0.000000e+00
     vertex -4.310491e+01  4.607329e+01  0.000000e+00
     vertex -4.030044e+01  6.189939e+00  0.000000e+00
   endloop
 endfacet
 facet normal  0.000000e+00 -0.000000e+00 -1.000000e+00
   outer loop
     vertex -2.050876e+01 -8.354780e+01  0.000000e+00
     vertex -1.808772e+01 -8.429786e+01  0.000000e+00
     vertex -2.418808e+01 -8.776523e+01  0.000000e+00
   endloop
 endfacet
 facet normal  0.000000e+00  0.000000e+00 -1.000000e+00
   outer loop
     vertex  5.094990e+01  4.543707e+01  0.000000e+00
     vertex  5.468957e+01  4.048078e+01  0.000000e+00
     vertex  5.637856e+01  3.734179e+01  0.000000e+00
   endloop
 endfacet
 facet normal  0.000000e+00 -0.000000e+00  1.000000e+00
   outer loop
     vertex  5.765955e+01 -1.748183e+00  1.000000e+02
     vertex  5.939484e+01  4.647492e+00  1.000000e+02
     vertex  3.254523e+00 -3.527450e+00  1.000000e+02
   endloop
 endfacet
 facet normal  0.000000e+00  0.000000e+00  1.000000e+00
   outer loop
     vertex  5.765955e+01 -1.748183e+00  1.000000e+02
     vertex  3.254523e+00 -3.527450e+00  1.000000e+02
     vertex  4.352664e+00 -6.052494e+00  1.000000e+02
   endloop
 endfacet
 facet normal  0.000000e+00  0.000000e+00  1.000000e+00
   outer loop
     vertex -3.633023e+01  5.937913e+00  1.000000e+02
     vertex -4.310491e+01  4.607329e+01  1.000000e+02
     vertex -4.030044e+01  6.189939e+00  1.000000e+02
   endloop
 endfacet
 facet normal  0.000000e+00 -0.000000e+00  1.000000e+00
   outer loop
     vertex -7.635375e+01  3.276872e+01  1.000000e+02
     vertex -7.622934e+01  3.357830e+01  1.000000e+02
     vertex -7.634019e+01  3.317476e+01  1.000000e+02
   endloop
 endfacet
 facet normal  0.000000e+00 -0.000000e+00  1.000000e+00
   outer loop
     vertex  5.538543e+01 -7.694516e+00  1.000000e+02
     vertex  5.765955e+01 -1.748183e+00  1.000000e+02
     vertex  4.352664e+00 -6.052494e+00  1.000000e+02
   endloop
 endfacet
 facet normal  0.000000e+00 -0.000000e+00  1.000000e+00
   outer loop
     vertex  6.137369e+01  7.690009e+01  1.000000e+02
     vertex  6.544315e+01  8.718663e+01  1.000000e+02
     vertex  5.267273e+01  8.374088e+01  1.000000e+02
   endloop
 endfacet
 facet normal  0.000000e+00  0.000000e+00  1.000000e+00
   outer loop
     vertex -2.390971e+01  9.471154e+00  1.000000e+02
     vertex -4.142752e+01  4.704856e+01  1.000000e+02
     vertex -4.310491e+01  4.607329e+01  1.000000e+02
   endloop
 endfacet
 facet normal  0.000000e+00 -0.000000e+00  1.000000e+00
   outer loop
     vertex -7.627381e+01  3.230098e+01  1.000000e+02
     vertex -7.462309e+01  3.524161e+01  1.000000e+02
     vertex -7.544478e+01  3.466759e+01  1.000000e+02
   endloop
 endfacet
 facet normal  0.000000e+00 -0.000000e+00  1.000000e+00
   outer loop
     vertex -7.627381e+01  3.230098e+01  1.000000e+02
     vertex -7.544478e+01  3.466759e+01  1.000000e+02
     vertex -7.595704e+01  3.408531e+01  1.000000e+02
   endloop
 endfacet
 facet normal  0.000000e+00 -0.000000e+00  1.000000e+00
   outer loop
     vertex -7.627381e+01  3.230098e+01  1.000000e+02
     vertex -7.595704e+01  3.408531e+01  1.000000e+02
     vertex -7.622934e+01  3.357830e+01  1.000000e+02
   endloop
 endfacet
 facet normal  0.000000e+00 -0.000000e+00  1.000000e+00
   outer loop
     vertex  5.202880e+01 -1.447981e+01  1.000000e+02
     vertex  5.538543e+01 -7.694516e+00  1.000000e+02
     vertex  4.352664e+00 -6.052494e+00  1.000000e+02
   endloop
 endfacet
 facet normal  0.000000e+00  0.000000e+00  1.000000e+00
   outer loop
     vertex  5.202880e+01 -1.447981e+01  1.000000e+02
     vertex  4.352664e+00 -6.052494e+00  1.000000e+02
     vertex  5.277984e+00 -9.694321e+00  1.000000e+02
   endloop
 endfacet
 facet normal  0.000000e+00  0.000000e+00  1.000000e+00
   outer loop
     vertex -2.206230e+01  1.003633e+01  1.000000e+02
     vertex -3.927461e+01  4.899519e+01  1.000000e+02
     vertex -4.142752e+01  4.704856e+01  1.000000e+02
   endloop
 endfacet
 facet normal  0.000000e+00 -0.000000e+00  1.000000e+00
   outer loop
     vertex -7.627381e+01  3.230098e+01  1.000000e+02
     vertex -7.622934e+01  3.357830e+01  1.000000e+02
     vertex -7.635375e+01  3.276872e+01  1.000000e+02
   endloop
 endfacet
 facet normal  0.000000e+00  0.000000e+00  1.000000e+00
   outer loop
     vertex -2.206230e+01  1.003633e+01  1.000000e+02
     vertex -4.142752e+01  4.704856e+01  1.000000e+02
     vertex -2.390971e+01  9.471154e+00  1.000000e+02
   endloop
 endfacet
 facet normal  0.000000e+00 -0.000000e+00  1.000000e+00
   outer loop
     vertex -2.569625e+01  8.729969e+00  1.000000e+02
     vertex -2.390971e+01  9.471154e+00  1.000000e+02
     vertex -4.310491e+01  4.607329e+01  1.000000e+02
   endloop
 endfacet
 facet normal  0.000000e+00 -0.000000e+00  1.000000e+00
   outer loop
     vertex -7.481170e+01  2.839342e+01  1.000000e+02
     vertex -6.793146e+01  3.799517e+01  1.000000e+02
     vertex -7.462309e+01  3.524161e+01  1.000000e+02
   endloop
 endfacet
 facet normal  0.000000e+00 -0.000000e+00  1.000000e+00
   outer loop
     vertex -7.481170e+01  2.839342e+01  1.000000e+02
     vertex -7.462309e+01  3.524161e+01  1.000000e+02
     vertex -7.627381e+01  3.230098e+01  1.000000e+02
   endloop
 endfacet
 facet normal  0.000000e+00  0.000000e+00  1.000000e+00
   outer loop
     vertex -3.260757e+01  6.287878e+00  1.000000e+02
     vertex -4.310491e+01  4.607329e+01  1.000000e+02
     vertex -3.633023e+01  5.937913e+00  1.000000e+02
   endloop
 endfacet
 facet normal  0.000000e+00 -0.000000e+00  1.000000e+00
   outer loop
     vertex  4.776477e+01 -2.175558e+01  1.000000e+02
     vertex  5.202880e+01 -1.447981e+01  1.000000e+02
     vertex  5.277984e+00 -9.694321e+00  1.000000e+02
   endloop
 endfacet
 facet normal  0.000000e+00 -0.000000e+00  1.000000e+00
   outer loop
     vertex -2.923216e+01  7.189868e+00  1.000000e+02
     vertex -2.569625e+01  8.729969e+00  1.000000e+02
     vertex -4.310491e+01  4.607329e+01  1.000000e+02
   endloop
 endfacet
 facet normal  0.000000e+00 -0.000000e+00  1.000000e+00
   outer loop
     vertex -7.380288e+01  2.656629e+01  1.000000e+02
     vertex -6.793146e+01  3.799517e+01  1.000000e+02
     vertex -7.481170e+01  2.839342e+01  1.000000e+02
   endloop
 endfacet
 facet normal  0.000000e+00 -0.000000e+00  1.000000e+00
   outer loop
     vertex -3.906594e+01  5.819932e+01  1.000000e+02
     vertex -3.678137e+01  6.006603e+01  1.000000e+02
     vertex -3.886787e+01  5.866578e+01  1.000000e+02
   endloop
 endfacet
 facet normal  0.000000e+00  0.000000e+00  1.000000e+00
   outer loop
     vertex  4.776477e+01 -2.175558e+01  1.000000e+02
     vertex  5.277984e+00 -9.694321e+00  1.000000e+02
     vertex  6.413243e+00 -1.592886e+01  1.000000e+02
   endloop
 endfacet
 facet normal  0.000000e+00  0.000000e+00  1.000000e+00
   outer loop
     vertex -2.923216e+01  7.189868e+00  1.000000e+02
     vertex -4.310491e+01  4.607329e+01  1.000000e+02
     vertex -3.260757e+01  6.287878e+00  1.000000e+02
   endloop
 endfacet
 facet normal  0.000000e+00 -0.000000e+00  1.000000e+00
   outer loop
     vertex -3.906594e+01  5.819932e+01  1.000000e+02
     vertex -3.886787e+01  5.866578e+01  1.000000e+02
     vertex -3.898177e+01  5.847653e+01  1.000000e+02
   endloop
 endfacet
 facet normal  0.000000e+00  0.000000e+00  1.000000e+00
   outer loop
     vertex -1.901639e+01  1.040240e+01  1.000000e+02
     vertex -3.873963e+01  4.969915e+01  1.000000e+02
     vertex -3.927461e+01  4.899519e+01  1.000000e+02
   endloop
 endfacet
 facet normal  0.000000e+00 -0.000000e+00  1.000000e+00
   outer loop
     vertex -7.262565e+01  2.483199e+01  1.000000e+02
     vertex -6.793146e+01  3.799517e+01  1.000000e+02
     vertex -7.380288e+01  2.656629e+01  1.000000e+02
   endloop
 endfacet
 facet normal  0.000000e+00  0.000000e+00  1.000000e+00
   outer loop
     vertex  5.586183e+01  6.482418e+01  1.000000e+02
     vertex  5.267273e+01  8.374088e+01  1.000000e+02
     vertex  3.570051e+01  7.890837e+01  1.000000e+02
   endloop
 endfacet
 facet normal  0.000000e+00  0.000000e+00  1.000000e+00
   outer loop
     vertex -1.901639e+01  1.040240e+01  1.000000e+02
     vertex -3.927461e+01  4.899519e+01  1.000000e+02
     vertex -2.206230e+01  1.003633e+01  1.000000e+02
   endloop
 endfacet
 facet normal  0.000000e+00 -0.000000e+00  1.000000e+00
   outer loop
     vertex -3.894359e+01  5.606978e+01  1.000000e+02
     vertex -3.678137e+01  6.006603e+01  1.000000e+02
     vertex -3.906594e+01  5.819932e+01  1.000000e+02
   endloop
 endfacet
 facet normal  0.000000e+00 -0.000000e+00  1.000000e+00
   outer loop
     vertex  5.586183e+01  6.482418e+01  1.000000e+02
     vertex  6.137369e+01  7.690009e+01  1.000000e+02
     vertex  5.267273e+01  8.374088e+01  1.000000e+02
   endloop
 endfacet
 facet normal  0.000000e+00 -0.000000e+00  1.000000e+00
   outer loop
     vertex  4.299201e+01 -2.856834e+01  1.000000e+02
     vertex  4.776477e+01 -2.175558e+01  1.000000e+02
     vertex  6.413243e+00 -1.592886e+01  1.000000e+02
   endloop
 endfacet
 facet normal  0.000000e+00  0.000000e+00  1.000000e+00
   outer loop
     vertex  4.299201e+01 -2.856834e+01  1.000000e+02
     vertex  6.413243e+00 -1.592886e+01  1.000000e+02
     vertex  6.643934e+00 -2.003997e+01  1.000000e+02
   endloop
 endfacet
 facet normal  0.000000e+00  0.000000e+00  1.000000e+00
   outer loop
     vertex -1.533645e+01  1.018729e+01  1.000000e+02
     vertex -1.726698e+01  6.776479e+01  1.000000e+02
     vertex -3.856284e+01  5.011848e+01  1.000000e+02
   endloop
 endfacet
 facet normal  0.000000e+00  0.000000e+00  1.000000e+00
   outer loop
     vertex -1.533645e+01  1.018729e+01  1.000000e+02
     vertex -3.856284e+01  5.011848e+01  1.000000e+02
     vertex -3.873963e+01  4.969915e+01  1.000000e+02
   endloop
 endfacet
 facet normal  0.000000e+00  0.000000e+00  1.000000e+00
   outer loop
     vertex -1.533645e+01  1.018729e+01  1.000000e+02
     vertex -3.873963e+01  4.969915e+01  1.000000e+02
     vertex -1.901639e+01  1.040240e+01  1.000000e+02
   endloop
 endfacet
 facet normal  0.000000e+00 -0.000000e+00  1.000000e+00
   outer loop
     vertex -7.017531e+01  2.201937e+01  1.000000e+02
     vertex -6.793146e+01  3.799517e+01  1.000000e+02
     vertex -7.262565e+01  2.483199e+01  1.000000e+02
   endloop
 endfacet
 facet normal  0.000000e+00  0.000000e+00  1.000000e+00
   outer loop
     vertex -1.226456e+01  9.410684e+00  1.000000e+02
     vertex -1.726698e+01  6.776479e+01  1.000000e+02
     vertex -1.533645e+01  1.018729e+01  1.000000e+02
   endloop
 endfacet
 facet normal  0.000000e+00  0.000000e+00  1.000000e+00
   outer loop
     vertex  3.760943e+01 -3.522821e+01  1.000000e+02
     vertex  6.643934e+00 -2.003997e+01  1.000000e+02
     vertex  6.250506e+00 -2.444008e+01  1.000000e+02
   endloop
 endfacet
 facet normal  0.000000e+00 -0.000000e+00  1.000000e+00
   outer loop
     vertex -1.226456e+01  9.410684e+00  1.000000e+02
     vertex -3.735014e+00  7.189728e+01  1.000000e+02
     vertex -1.025453e+01  7.022219e+01  1.000000e+02
   endloop
 endfacet
 facet normal  0.000000e+00 -0.000000e+00  1.000000e+00
   outer loop
     vertex  3.760943e+01 -3.522821e+01  1.000000e+02
     vertex  4.299201e+01 -2.856834e+01  1.000000e+02
     vertex  6.643934e+00 -2.003997e+01  1.000000e+02
   endloop
 endfacet
 facet normal  0.000000e+00 -0.000000e+00  1.000000e+00
   outer loop
     vertex -1.226456e+01  9.410684e+00  1.000000e+02
     vertex -1.025453e+01  7.022219e+01  1.000000e+02
     vertex -1.726698e+01  6.776479e+01  1.000000e+02
   endloop
 endfacet
 facet normal  0.000000e+00  0.000000e+00  1.000000e+00
   outer loop
     vertex  3.760943e+01 -3.522821e+01  1.000000e+02
     vertex  6.250506e+00 -2.444008e+01  1.000000e+02
     vertex  5.154284e+00 -3.007779e+01  1.000000e+02
   endloop
 endfacet
 facet normal  0.000000e+00 -0.000000e+00  1.000000e+00
   outer loop
     vertex -6.709583e+01  1.947188e+01  1.000000e+02
     vertex -6.079502e+01  4.043626e+01  1.000000e+02
     vertex -6.793146e+01  3.799517e+01  1.000000e+02
   endloop
 endfacet
 facet normal  0.000000e+00 -0.000000e+00  1.000000e+00
   outer loop
     vertex -3.866057e+01  5.329081e+01  1.000000e+02
     vertex -3.273497e+01  6.206196e+01  1.000000e+02
     vertex -3.678137e+01  6.006603e+01  1.000000e+02
   endloop
 endfacet
 facet normal  0.000000e+00  0.000000e+00  1.000000e+00
   outer loop
     vertex -6.709583e+01  1.947188e+01  1.000000e+02
     vertex -6.793146e+01  3.799517e+01  1.000000e+02
     vertex -7.017531e+01  2.201937e+01  1.000000e+02
   endloop
 endfacet
 facet normal  0.000000e+00 -0.000000e+00  1.000000e+00
   outer loop
     vertex -3.866057e+01  5.329081e+01  1.000000e+02
     vertex -3.678137e+01  6.006603e+01  1.000000e+02
     vertex -3.894359e+01  5.606978e+01  1.000000e+02
   endloop
 endfacet
 facet normal  0.000000e+00 -0.000000e+00  1.000000e+00
   outer loop
     vertex  5.225764e+01  5.789133e+01  1.000000e+02
     vertex  5.586183e+01  6.482418e+01  1.000000e+02
     vertex  3.570051e+01  7.890837e+01  1.000000e+02
   endloop
 endfacet
 facet normal  0.000000e+00 -0.000000e+00  1.000000e+00
   outer loop
     vertex -3.856284e+01  5.011848e+01  1.000000e+02
     vertex -1.726698e+01  6.776479e+01  1.000000e+02
     vertex -2.622782e+01  6.440091e+01  1.000000e+02
   endloop
 endfacet
 facet normal  0.000000e+00  0.000000e+00  1.000000e+00
   outer loop
     vertex  5.832147e+01  3.206130e+01  1.000000e+02
     vertex  5.637856e+01  3.734179e+01  1.000000e+02
     vertex  5.094990e+01  4.543707e+01  1.000000e+02
   endloop
 endfacet
 facet normal  0.000000e+00 -0.000000e+00  1.000000e+00
   outer loop
     vertex -3.856284e+01  5.011848e+01  1.000000e+02
     vertex -2.622782e+01  6.440091e+01  1.000000e+02
     vertex -3.273497e+01  6.206196e+01  1.000000e+02
   endloop
 endfacet
 facet normal  0.000000e+00 -0.000000e+00  1.000000e+00
   outer loop
     vertex -9.308003e+00  7.977011e+00  1.000000e+02
     vertex  5.727656e+00  7.346154e+01  1.000000e+02
     vertex -3.735014e+00  7.189728e+01  1.000000e+02
   endloop
 endfacet
 facet normal  0.000000e+00  0.000000e+00  1.000000e+00
   outer loop
     vertex  2.796216e+01 -4.603694e+01  1.000000e+02
     vertex  5.154284e+00 -3.007779e+01  1.000000e+02
     vertex  2.939898e+00 -3.830711e+01  1.000000e+02
   endloop
 endfacet
 facet normal  0.000000e+00 -0.000000e+00  1.000000e+00
   outer loop
     vertex -9.308003e+00  7.977011e+00  1.000000e+02
     vertex -3.735014e+00  7.189728e+01  1.000000e+02
     vertex -1.226456e+01  9.410684e+00  1.000000e+02
   endloop
 endfacet
 facet normal  0.000000e+00 -0.000000e+00  1.000000e+00
   outer loop
     vertex -3.856284e+01  5.011848e+01  1.000000e+02
     vertex -3.273497e+01  6.206196e+01  1.000000e+02
     vertex -3.866057e+01  5.329081e+01  1.000000e+02
   endloop
 endfacet
 facet normal  0.000000e+00 -0.000000e+00  1.000000e+00
   outer loop
     vertex -9.308003e+00  7.977011e+00  1.000000e+02
     vertex  4.717687e+01  5.032767e+01  1.000000e+02
     vertex  5.727656e+00  7.346154e+01  1.000000e+02
   endloop
 endfacet
 facet normal  0.000000e+00 -0.000000e+00  1.000000e+00
   outer loop
     vertex  2.796216e+01 -4.603694e+01  1.000000e+02
     vertex  3.760943e+01 -3.522821e+01  1.000000e+02
     vertex  5.154284e+00 -3.007779e+01  1.000000e+02
   endloop
 endfacet
 facet normal  0.000000e+00 -0.000000e+00  1.000000e+00
   outer loop
     vertex  4.987491e+01  5.400685e+01  1.000000e+02
     vertex  5.225764e+01  5.789133e+01  1.000000e+02
     vertex  3.570051e+01  7.890837e+01  1.000000e+02
   endloop
 endfacet
 facet normal  0.000000e+00  0.000000e+00  1.000000e+00
   outer loop
     vertex  4.717687e+01  5.032767e+01  1.000000e+02
     vertex  3.570051e+01  7.890837e+01  1.000000e+02
     vertex  2.584124e+01  7.662256e+01  1.000000e+02
   endloop
 endfacet
 facet normal  0.000000e+00  0.000000e+00  1.000000e+00
   outer loop
     vertex  4.717687e+01  5.032767e+01  1.000000e+02
     vertex  2.584124e+01  7.662256e+01  1.000000e+02
     vertex  1.522648e+01  7.481107e+01  1.000000e+02
   endloop
 endfacet
 facet normal  0.000000e+00  0.000000e+00  1.000000e+00
   outer loop
     vertex  4.717687e+01  5.032767e+01  1.000000e+02
     vertex  1.522648e+01  7.481107e+01  1.000000e+02
     vertex  5.727656e+00  7.346154e+01  1.000000e+02
   endloop
 endfacet
 facet normal  0.000000e+00  0.000000e+00  1.000000e+00
   outer loop
     vertex  2.113605e+01 -5.305353e+01  1.000000e+02
     vertex  2.939898e+00 -3.830711e+01  1.000000e+02
     vertex  3.698708e-01 -4.581113e+01  1.000000e+02
   endloop
 endfacet
 facet normal  0.000000e+00 -0.000000e+00  1.000000e+00
   outer loop
     vertex -2.779479e+00  3.838624e+00  1.000000e+02
     vertex  4.717687e+01  5.032767e+01  1.000000e+02
     vertex -9.308003e+00  7.977011e+00  1.000000e+02
   endloop
 endfacet
 facet normal  0.000000e+00 -0.000000e+00  1.000000e+00
   outer loop
     vertex  2.113605e+01 -5.305353e+01  1.000000e+02
     vertex  2.796216e+01 -4.603694e+01  1.000000e+02
     vertex  2.939898e+00 -3.830711e+01  1.000000e+02
   endloop
 endfacet
 facet normal  0.000000e+00 -0.000000e+00  1.000000e+00
   outer loop
     vertex  4.717687e+01  5.032767e+01  1.000000e+02
     vertex  4.987491e+01  5.400685e+01  1.000000e+02
     vertex  3.570051e+01  7.890837e+01  1.000000e+02
   endloop
 endfacet
 facet normal  0.000000e+00  0.000000e+00  1.000000e+00
   outer loop
     vertex  1.487333e+01 -5.872528e+01  1.000000e+02
     vertex  3.698708e-01 -4.581113e+01  1.000000e+02
     vertex -2.475678e+00 -5.234983e+01  1.000000e+02
   endloop
 endfacet
 facet normal  0.000000e+00 -0.000000e+00  1.000000e+00
   outer loop
     vertex -2.779479e+00  3.838624e+00  1.000000e+02
     vertex  5.094990e+01  4.543707e+01  1.000000e+02
     vertex  4.717687e+01  5.032767e+01  1.000000e+02
   endloop
 endfacet
 facet normal  0.000000e+00 -0.000000e+00  1.000000e+00
   outer loop
     vertex  1.487333e+01 -5.872528e+01  1.000000e+02
     vertex  2.113605e+01 -5.305353e+01  1.000000e+02
     vertex  3.698708e-01 -4.581113e+01  1.000000e+02
   endloop
 endfacet
 facet normal  0.000000e+00 -0.000000e+00  1.000000e+00
   outer loop
     vertex -9.208403e-01  1.854256e+00  1.000000e+02
     vertex  5.832147e+01  3.206130e+01  1.000000e+02
     vertex  5.094990e+01  4.543707e+01  1.000000e+02
   endloop
 endfacet
 facet normal  0.000000e+00 -0.000000e+00  1.000000e+00
   outer loop
     vertex -6.095049e+01  1.536173e+01  1.000000e+02
     vertex -5.192655e+01  4.302987e+01  1.000000e+02
     vertex -6.079502e+01  4.043626e+01  1.000000e+02
   endloop
 endfacet
 facet normal  0.000000e+00  0.000000e+00  1.000000e+00
   outer loop
     vertex  8.322600e+00 -6.407264e+01  1.000000e+02
     vertex -2.475678e+00 -5.234983e+01  1.000000e+02
     vertex -6.313407e+00 -5.954773e+01  1.000000e+02
   endloop
 endfacet
 facet normal  0.000000e+00 -0.000000e+00  1.000000e+00
   outer loop
     vertex -9.208403e-01  1.854256e+00  1.000000e+02
     vertex  5.094990e+01  4.543707e+01  1.000000e+02
     vertex -2.779479e+00  3.838624e+00  1.000000e+02
   endloop
 endfacet
 facet normal  0.000000e+00 -0.000000e+00  1.000000e+00
   outer loop
     vertex -6.095049e+01  1.536173e+01  1.000000e+02
     vertex -6.079502e+01  4.043626e+01  1.000000e+02
     vertex -6.709583e+01  1.947188e+01  1.000000e+02
   endloop
 endfacet
 facet normal  0.000000e+00 -0.000000e+00  1.000000e+00
   outer loop
     vertex  8.322600e+00 -6.407264e+01  1.000000e+02
     vertex  1.487333e+01 -5.872528e+01  1.000000e+02
     vertex -2.475678e+00 -5.234983e+01  1.000000e+02
   endloop
 endfacet
 facet normal  0.000000e+00 -0.000000e+00  1.000000e+00
   outer loop
     vertex -5.466635e+01  1.150317e+01  1.000000e+02
     vertex -4.749738e+01  4.443386e+01  1.000000e+02
     vertex -5.192655e+01  4.302987e+01  1.000000e+02
   endloop
 endfacet
 facet normal  0.000000e+00 -0.000000e+00  1.000000e+00
   outer loop
     vertex -5.466635e+01  1.150317e+01  1.000000e+02
     vertex -5.192655e+01  4.302987e+01  1.000000e+02
     vertex -6.095049e+01  1.536173e+01  1.000000e+02
   endloop
 endfacet
 facet normal  0.000000e+00 -0.000000e+00  1.000000e+00
   outer loop
     vertex  1.259337e+00 -8.013625e-01  1.000000e+02
     vertex  5.832147e+01  3.206130e+01  1.000000e+02
     vertex -9.208403e-01  1.854256e+00  1.000000e+02
   endloop
 endfacet
 facet normal  0.000000e+00  0.000000e+00  1.000000e+00
   outer loop
     vertex -4.861389e+00 -7.465916e+01  1.000000e+02
     vertex -6.313407e+00 -5.954773e+01  1.000000e+02
     vertex -1.290874e+01 -7.111834e+01  1.000000e+02
   endloop
 endfacet
 facet normal  0.000000e+00 -0.000000e+00  1.000000e+00
   outer loop
     vertex -4.861389e+00 -7.465916e+01  1.000000e+02
     vertex  8.322600e+00 -6.407264e+01  1.000000e+02
     vertex -6.313407e+00 -5.954773e+01  1.000000e+02
   endloop
 endfacet
 facet normal  0.000000e+00 -0.000000e+00  1.000000e+00
   outer loop
     vertex  1.259337e+00 -8.013625e-01  1.000000e+02
     vertex  6.089548e+01  2.125617e+01  1.000000e+02
     vertex  5.996614e+01  2.641839e+01  1.000000e+02
   endloop
 endfacet
 facet normal  0.000000e+00 -0.000000e+00  1.000000e+00
   outer loop
     vertex  1.259337e+00 -8.013625e-01  1.000000e+02
     vertex  5.996614e+01  2.641839e+01  1.000000e+02
     vertex  5.832147e+01  3.206130e+01  1.000000e+02
   endloop
 endfacet
 facet normal  0.000000e+00 -0.000000e+00  1.000000e+00
   outer loop
     vertex -4.903295e+01  8.739569e+00  1.000000e+02
     vertex -4.749738e+01  4.443386e+01  1.000000e+02
     vertex -5.466635e+01  1.150317e+01  1.000000e+02
   endloop
 endfacet
 facet normal  0.000000e+00  0.000000e+00  1.000000e+00
   outer loop
     vertex  6.113473e+01  1.638039e+01  1.000000e+02
     vertex  6.089548e+01  2.125617e+01  1.000000e+02
     vertex  1.259337e+00 -8.013625e-01  1.000000e+02
   endloop
 endfacet
 facet normal  0.000000e+00 -0.000000e+00  1.000000e+00
   outer loop
     vertex  3.254523e+00 -3.527450e+00  1.000000e+02
     vertex  6.113473e+01  1.638039e+01  1.000000e+02
     vertex  1.259337e+00 -8.013625e-01  1.000000e+02
   endloop
 endfacet
 facet normal  0.000000e+00  0.000000e+00  1.000000e+00
   outer loop
     vertex -1.229999e+01 -8.037698e+01  1.000000e+02
     vertex -1.290874e+01 -7.111834e+01  1.000000e+02
     vertex -1.735586e+01 -7.900257e+01  1.000000e+02
   endloop
 endfacet
 facet normal  0.000000e+00 -0.000000e+00  1.000000e+00
   outer loop
     vertex -1.229999e+01 -8.037698e+01  1.000000e+02
     vertex -4.861389e+00 -7.465916e+01  1.000000e+02
     vertex -1.290874e+01 -7.111834e+01  1.000000e+02
   endloop
 endfacet
 facet normal  0.000000e+00 -0.000000e+00  1.000000e+00
   outer loop
     vertex  6.070677e+01  1.145426e+01  1.000000e+02
     vertex  6.113473e+01  1.638039e+01  1.000000e+02
     vertex  3.254523e+00 -3.527450e+00  1.000000e+02
   endloop
 endfacet
 facet normal  0.000000e+00 -0.000000e+00  1.000000e+00
   outer loop
     vertex -4.449711e+01  7.094208e+00  1.000000e+02
     vertex -4.310491e+01  4.607329e+01  1.000000e+02
     vertex -4.749738e+01  4.443386e+01  1.000000e+02
   endloop
 endfacet
 facet normal  0.000000e+00 -0.000000e+00  1.000000e+00
   outer loop
     vertex -1.808772e+01 -8.429786e+01  1.000000e+02
     vertex -1.735586e+01 -7.900257e+01  1.000000e+02
     vertex -2.050876e+01 -8.354780e+01  1.000000e+02
   endloop
 endfacet
 facet normal  0.000000e+00  0.000000e+00  1.000000e+00
   outer loop
     vertex -4.449711e+01  7.094208e+00  1.000000e+02
     vertex -4.749738e+01  4.443386e+01  1.000000e+02
     vertex -4.903295e+01  8.739569e+00  1.000000e+02
   endloop
 endfacet
 facet normal  0.000000e+00 -0.000000e+00  1.000000e+00
   outer loop
     vertex -1.808772e+01 -8.429786e+01  1.000000e+02
     vertex -1.229999e+01 -8.037698e+01  1.000000e+02
     vertex -1.735586e+01 -7.900257e+01  1.000000e+02
   endloop
 endfacet
 facet normal  0.000000e+00 -0.000000e+00  1.000000e+00
   outer loop
     vertex  5.939484e+01  4.647492e+00  1.000000e+02
     vertex  6.070677e+01  1.145426e+01  1.000000e+02
     vertex  3.254523e+00 -3.527450e+00  1.000000e+02
   endloop
 endfacet
 facet normal  0.000000e+00  0.000000e+00  1.000000e+00
   outer loop
     vertex -4.030044e+01  6.189939e+00  1.000000e+02
     vertex -4.310491e+01  4.607329e+01  1.000000e+02
     vertex -4.449711e+01  7.094208e+00  1.000000e+02
   endloop
 endfacet
 facet normal  0.000000e+00 -0.000000e+00  1.000000e+00
   outer loop
     vertex -2.418808e+01 -8.776523e+01  1.000000e+02
     vertex -1.808772e+01 -8.429786e+01  1.000000e+02
     vertex -2.050876e+01 -8.354780e+01  1.000000e+02
   endloop
 endfacet
 facet normal  0.000000e+00  0.000000e+00  1.000000e+00
   outer loop
     vertex  5.637856e+01  3.734179e+01  1.000000e+02
     vertex  5.468957e+01  4.048078e+01  1.000000e+02
     vertex  5.094990e+01  4.543707e+01  1.000000e+02
   endloop
 endfacet
endsolid wolflocal
